<?xml version="1.0" encoding="utf-8" ?><svg xmlns="http://www.w3.org/2000/svg" xmlns:xlink="http://www.w3.org/1999/xlink" width="1024" height="1024" viewBox="0 0 1024 1024"><path fill="#0C3432" d="M0 0L1024 0L1024 1024L0 1024L0 0Z"/><path fill="#0C3432" d="M203.489 590.344C196.611 565.201 193.609 531.933 194.206 506.029C196.145 422.649 231.324 343.501 291.919 286.193C353.371 227.534 434.648 193.051 520.065 195.138C604.371 197.457 684.255 233.366 741.952 294.878C749.514 301.564 777.875 335.667 780.712 343.55C786.955 351.759 794.727 366.918 799.301 376.041C829.224 435.73 837.559 502.273 828.653 568.158C827.578 575.599 826.413 583.027 825.16 590.441C844.818 590.635 864.924 590.18 884.471 590.57C899.355 609.432 917.158 630.396 931.034 649.585C918.881 663.76 907.185 679.845 894.782 694.037C890.587 698.837 885.919 705.311 881.624 709.739C868.025 710.215 853.072 709.957 839.368 709.955L762.672 709.981C752.352 721.773 743.592 732.234 731.892 742.814C677.195 792.276 607.395 824.429 533.621 829.355C487.035 832.569 440.332 825.082 397.085 807.467C393.27 805.947 377.387 799.249 374.867 797.209C368.852 794.989 357.869 788.561 352.218 785.327C317.108 765.232 290.27 740.408 264.204 709.777C252.923 709.416 239.838 709.751 228.408 709.731L145.496 709.724C128.796 690.252 112.512 669.094 96.4811 649.001L144.376 590.478C163.11 589.783 184.342 590.616 203.489 590.344Z"/><path fill="#0C3432" d="M286.827 585.439C285.68 580.02 283.734 574.628 282.606 569.183C254.318 432.759 359.677 292.008 499.412 283.635C564.085 279.759 619.758 302.199 667.955 344.84L668.515 345.471C678.72 356.893 689.877 365.878 698.419 379.175C699.744 381.239 710.515 397.018 710.614 397.091L722.658 419.937L724.222 423.639C748.169 480.095 750.924 531.776 734.384 590.533L288.896 590.475L286.827 585.439Z"/><path fill="#EDE6AB" d="M513.73 288.161C520.68 302.5 528.849 318.72 534.915 333.444C532.219 341.714 529.432 349.953 526.555 358.162L515.582 357.51C515.344 346.796 514.407 334.98 514.451 324.51L513.891 317.224L513.61 317.273L513.025 320.518C512.89 331.8 512.447 346.292 511.643 357.53C508.056 357.765 504.472 358.049 500.893 358.381C497.398 350.199 495.385 341.232 492.246 333.25C499.003 318.183 506.952 303.48 513.73 288.161Z"/><path fill="#B8A769" d="M513.025 320.518C512.895 316.453 512.848 309.447 513.511 305.538L513.371 306.494L513.773 306.715C514.176 311.549 514.914 319.894 514.451 324.51L513.891 317.224L513.61 317.273L513.025 320.518Z"/><path fill="#EDE6AB" d="M451.936 300.219C455.85 302.605 482.41 328.635 487.051 333.555C488.515 335.107 494.567 355.986 495.816 360.115C490.916 361 487.258 362.208 482.57 363.723C477.459 352.242 471.106 339.892 465.679 328.34C464.56 325.896 463.771 324.193 462.384 321.845C463.2 325.539 466.026 332.076 467.442 335.874C471.103 345.694 475.107 355.362 478.459 365.313C474.94 366.84 470.857 369.041 467.384 370.799C463.13 366.383 458.901 361.943 454.698 357.478C453.467 338.646 453.091 319.277 451.936 300.219Z"/><path fill="#EDE6AB" d="M574.877 299.901C575.409 303.414 574.72 319.43 574.487 323.469C573.857 334.405 573.872 346.438 572.928 357.244C569.13 361.544 564.195 366.401 560.125 370.59L548.969 364.879L559.392 337.673C561.181 333.084 564.037 326.368 565.363 321.892C564.16 323.158 563.059 325.769 562.25 327.429C556.442 339.492 550.441 351.461 544.248 363.33C539.869 361.652 535.863 360.674 531.346 359.493C533.369 354.134 538.93 334.752 541.47 332.261C552.252 321.683 564.214 310.728 574.877 299.901Z"/><path fill="#EDE6AB" d="M362.277 362.535C378.29 367.648 396 372.48 411.641 377.822C411.603 380.886 411.737 384.253 411.798 387.342C415.409 392.738 424.877 403.344 430.799 405.832C430.269 405.609 432.85 406.219 432.74 406.19L432.406 407.485L431.506 407.831C426.676 406.783 395.522 385.544 389.662 381.828L389.233 381.978C391.276 384.293 394.251 386.213 396.796 388.055C405.68 395.12 420.682 406.548 430.019 412.553C427.865 417.905 426.25 422.058 424.514 427.575L411.406 423.631L379.659 384.35C374.38 377.802 367.038 369.253 362.277 362.535Z"/><path fill="#B8A769" d="M663.784 362.631L664.159 362.959C663.217 365.127 655.882 373.739 653.938 376.218C645.991 386.382 637.99 396.505 629.937 406.585C626.017 411.51 620.889 418.45 616.276 422.628C614.507 424.23 607.323 425.637 604.474 426.301C602.888 421.162 601.149 416.59 599.251 411.569C608.326 405.094 618.464 396.954 627.388 390.092C630.912 387.423 633.482 385.488 636.669 382.468C633.328 383.232 604.766 403.786 597.379 406.992C597.583 406.095 602.695 402.262 603.906 400.952C607.844 396.693 611.751 392.32 615.644 388.03C616.07 384.728 616.01 381.263 616.047 377.924C631.204 372.813 648.513 367.074 663.784 362.631Z"/><path fill="#EDE6AB" d="M406.675 427.653C408.158 427.697 421.175 432.217 423.33 432.95C421.931 439.16 421.604 444.085 421.215 450.353C410.903 448.618 393.907 443.555 384.858 442.795L384.812 443.054C397.002 446.771 408.857 450.904 420.918 455.014C421.171 459.634 421.34 464.319 421.99 468.894C422.276 470.976 422.577 470.615 421.688 471.922C419.02 472.782 415.137 472.099 412.046 471.915C407.926 469.38 400.052 463.235 395.886 460.233C385.075 452.447 374.153 444.816 363.125 437.341C377.82 434.685 392.299 430.246 406.675 427.653Z"/><path fill="#B8A769" d="M620.718 426.983C622.251 427.024 631.969 429.463 634.065 429.974L663.597 437.266C650.733 445.34 638.446 454.564 626.294 463.675C622.654 466.404 619.375 469.162 615.402 471.427C613.063 471.402 606.168 471.975 604.564 470.712L604.599 469.367C605.826 464.448 606.691 458.516 607.155 453.47L632.022 445.696C635.337 444.672 640.908 443.255 643.898 442.059C641.164 441.959 612.455 448.192 607.543 449.218C607.13 443.858 606.676 436.697 605.463 431.575C610.516 430.267 615.719 428.546 620.718 426.983Z"/><path fill="#B8A769" d="M612.474 476.272C613.392 476.224 616.552 476 617.032 476.378C626.77 484.032 638.156 495.22 647.216 503.319C632.077 505.768 612.207 510.841 596.907 514.307C593.235 512.863 588.39 510.306 584.753 508.517L584.36 507.79C587.985 503.259 591.199 498.676 594.56 493.955C604.346 495.231 621.434 499.178 630.064 499.522C619.326 496.35 607.002 493.738 596.567 490.083C598.727 485.657 600.77 481.005 602.812 476.511L612.474 476.272Z"/><path fill="#D6C585" d="M409.845 476.559C413.545 477.092 419.892 477.301 423.802 477.552C425.466 482.903 426.729 486.588 428.841 491.82C420.621 493.713 412.534 496.354 404.297 498.212C401.39 498.868 398.878 499.546 396.088 500.603C398.418 500.879 426.331 496.413 430.831 495.815C432.823 499.411 435.183 503.223 437.292 506.787C437.781 507.456 439.002 508.982 438.527 509.736C436.964 512.214 431.572 513.558 428.935 514.4C412.631 510.382 395.821 507.645 379.549 503.65C389.163 496.075 399.992 483.622 409.845 476.559Z"/><path fill="#EDE6AB" d="M484.182 383.129C492.386 382.703 502.39 382.976 510.725 382.992C510.82 392.964 510.784 402.937 510.616 412.908C507.275 415.836 503.681 418.576 500.18 421.321L496.49 424.268C490.518 420.07 480.486 412.3 475.109 407.603C478.367 399.73 480.196 390.684 484.182 383.129Z"/><path fill="#EDE6AB" d="M516.168 383.197C524.038 383.06 535.186 382.678 542.898 383.462C545.714 389.7 549.217 400.726 551.561 407.553C548.355 410.268 545.117 412.945 541.849 415.585C537.981 418.589 534.055 421.517 530.073 424.369C525.096 420.9 520.486 416.738 515.949 412.714L516.168 383.197Z"/><path fill="#D6C585" d="M590.747 375.41C594.783 377.823 603.693 384.804 607.77 387.837C604.605 391.802 601.235 395.6 597.675 399.215C589.082 401.028 575.631 402.649 566.368 404.157L556.525 405.914C554.267 399.287 552.064 392.641 549.918 385.977C560.787 384.165 574.604 382.579 584.982 379.214C586.178 378.827 589.548 376.302 590.747 375.41Z"/><path fill="#EDE6AB" d="M436.277 375.913C437.841 376.457 439.367 377.801 440.71 378.803C445.146 382.114 469.633 384.359 476.943 385.772C474.763 392.603 472.542 399.42 470.28 406.225C467.734 405.57 464.721 405 462.113 404.448C450.935 402.687 441.036 400.835 429.66 399.334C426.347 396.073 422.731 391.925 419.55 388.454C424.148 384.587 431.227 379.044 436.277 375.913Z"/><path fill="#D6C585" d="M512.922 417.868C515.412 418.526 525.028 427.215 527.515 429.386C527.312 438.12 527.428 447.273 527.41 456.039L514.25 455.998L499.404 455.973C499.168 447.013 499.026 438.049 498.979 429.086C503.206 425.213 508.352 421.399 512.922 417.868Z"/><path fill="#EDE6AB" d="M433.185 424.276C435.391 425.559 438.212 426.89 440.528 428.059C432.417 457.215 436.384 484.065 457.077 506.734L453.443 511.666C452.766 512.465 452.387 512.788 451.622 513.506L450.774 513.348C429.413 488.35 422.38 455.552 433.185 424.276Z"/><path fill="#EDE6AB" d="M507.651 365.206C524.963 362.849 544.743 370.23 559.461 378.668L549.395 380.127C540.683 376.187 529.176 373.401 519.622 372.765C512.377 371.624 484.451 375.773 478.796 379.986C475.104 379.661 472.13 379.287 468.466 378.719C478.331 371.467 495.405 366.205 507.651 365.206Z"/><path fill="#B8A769" d="M594.64 419.961C602.768 440.159 601.822 460.561 593.342 480.489C588.567 491.708 581.774 499.788 573.839 508.841L570.239 503.777C591.789 481.35 597.911 456.073 589.102 426.161C591.183 425.172 593.267 424.503 594.565 422.713C594.617 421.461 594.594 421.544 594.08 420.386L594.64 419.961Z"/><path fill="#B8A769" d="M587.543 566.25C595.062 566.047 602.927 566.14 610.474 566.125C612.143 568.556 622.401 583.268 622.852 585.216C621.801 585.836 620.096 585.667 618.701 585.714C610.172 585.719 601.644 585.661 593.116 585.538C590.222 580.319 585.351 572.03 582.985 566.763C583.775 566.158 586.289 566.297 587.543 566.25Z"/><path fill="#D6C585" d="M447.463 566.509C457.118 566.393 466.885 566.471 476.549 566.473C475.222 569.523 468.589 584.342 466.505 585.561L436.62 585.589C439.355 580.047 444.239 572.388 447.463 566.509Z"/><path fill="#B8A769" d="M499.089 542.438C507.384 542.36 515.68 542.383 523.974 542.506C525.849 548.379 527.766 554.238 529.726 560.083L521.981 560.281C511.961 560.074 501.039 560.669 491.236 560.115C493.817 554.206 496.435 548.314 499.089 542.438Z"/><path fill="#B8A769" d="M548.73 566.262C557.173 566.163 566.375 565.948 574.743 566.376C576.304 569.416 584.317 583.238 584.61 585.339L583.625 585.678L554.644 585.566C553.115 582.05 547.077 569.205 547.585 566.525L548.73 566.262Z"/><path fill="#B8A769" d="M525.193 519.254C531.169 519.135 537.147 519.1 543.125 519.146L550.366 536.491L537.375 536.519L514.467 536.492L514.131 519.373L525.193 519.254Z"/><path fill="#B8A769" d="M514.456 566.388C522.527 566.243 530.6 566.249 538.671 566.406C541.417 572.746 544.078 579.121 546.654 585.531L514.505 585.568L514.456 566.388Z"/><path fill="#B8A769" d="M484.473 566.457C491.843 566.185 500.439 566.405 507.901 566.417L508.023 585.58L498.875 585.551L475.266 585.569C478.437 579.248 481.507 572.877 484.473 566.457Z"/><path fill="#D6C585" d="M500.581 498.706C508.265 499.187 519.966 498.825 528.038 498.88C530.988 503.571 533.898 508.286 536.767 513.026L528.25 513.081L491.299 513.14C494.298 508.223 497.16 503.344 500.581 498.706Z"/><path fill="#B8A769" d="M572.455 542.238C579.18 542.301 585.905 542.231 592.626 542.027C595.777 547.001 600.448 554.96 603.012 560.008L596.602 560.189L573.634 560.114C570.595 554.738 567.779 548.055 565.322 542.353L572.455 542.238Z"/><path fill="#D6C585" d="M485.835 519.216C493.226 519.218 500.617 519.277 508.006 519.394L508.081 536.587L495.937 536.696C488.505 536.614 481.112 536.873 473.626 536.741C476.372 531.908 479.129 526.974 482.164 522.326C483.626 520.089 483.602 519.684 485.835 519.216Z"/><path fill="#B8A769" d="M530.891 542.496C540.142 542.323 549.397 542.324 558.648 542.499C561.004 548.261 563.763 554.308 566.248 560.063L536.952 560.036C534.667 554.902 532.507 547.89 530.891 542.496Z"/><path fill="#EDE6AB" d="M474.487 414.203C475.961 415.086 478.971 417.65 480.444 418.832L480.448 430.853C485.015 433.501 489.775 436.644 494.188 439.555C494.457 447.097 495.806 455.497 492.061 461.728C491.171 463.089 490.983 463.521 489.683 464.563C486.624 461.195 475.737 441.831 474.094 437.214C473.541 435.659 474.373 417.389 474.487 414.203Z"/><path fill="#D6C585" d="M434.081 542.5C442.826 542.437 451.572 542.442 460.317 542.516C458.099 547.676 454.224 554.477 450.827 558.977C449.697 560.473 449.067 560.195 447.441 560.3C438.714 560.064 429.715 560.578 421.062 560.069C425.439 554.241 429.779 548.384 434.081 542.5Z"/><path fill="#B8A769" d="M554.872 518.764C562.215 518.634 569.56 518.591 576.905 518.634C578.705 522.678 585.502 532.873 585.529 536.1C584.319 536.774 582.62 536.595 581.155 536.614L557.907 536.598C555.807 532.812 552.013 523.297 550.163 518.949L554.872 518.764Z"/><path fill="#D6C585" d="M551.651 414.391L552.162 414.832C553.022 417.821 552.154 421.462 552.523 424.457C554.506 440.516 545.272 450.536 537.828 464.546L537.074 464.739L536.092 463.383L532.49 457.983L532.508 439.645C537.245 436.543 541.179 434.076 546.112 431.274C546.428 427.727 546.384 422.597 546.461 418.932L551.651 414.391Z"/><path fill="#D6C585" d="M415.571 566.463L439.656 566.508C436.428 572.338 433.089 578.672 429.399 584.226C428.473 585.619 427.952 585.432 426.625 585.558C418.279 585.635 409.933 585.582 401.589 585.399L415.571 566.463Z"/><path fill="#D6C585" d="M468.366 542.356L492.282 542.426C490.3 547.601 487.435 553.743 484.87 558.654C483.999 560.323 483.994 560.133 482.625 560.443C474.177 560.503 465.728 560.467 457.28 560.335L468.366 542.356Z"/><path fill="#D6C585" d="M499.479 461.022C505.552 461.468 525.698 460.268 529.054 462.878L529.023 463.686C527.057 465.906 524.439 467.753 522.073 469.594L521.675 475.759L521.563 481.993L504.999 482.065C504.988 477.662 504.901 474.431 504.517 470.06C502.157 468.057 499.848 466.999 498.205 464.396C497.962 462.461 498 463.118 499.479 461.022Z"/><path fill="#EDE6AB" d="M416.542 346.113C419.385 347.066 430.402 356.047 432.992 358.176C433.112 362.577 432.994 367.075 432.931 371.484C430.877 373.421 428.16 375.341 425.876 377.065L416.919 383.722C416.655 371.187 416.53 358.65 416.542 346.113Z"/><path fill="#D6C585" d="M609.996 346.375C611.678 348.505 610.707 378.769 610.64 383.565L601.608 376.902C599.086 375.055 596.808 373.034 594.435 371.001L594.262 357.777C599.569 354.064 604.815 350.262 609.996 346.375Z"/><path fill="#D6C585" d="M453.144 519.464C460.866 519.342 468.589 519.359 476.31 519.515C472.355 525.348 468.417 531.312 464.181 536.933L439.777 536.891C443.023 531.923 449.299 524.074 453.144 519.464Z"/><path fill="#D6C585" d="M571.566 408.665C576.028 411.07 582.608 417.488 586.495 421.099C582.037 423.965 577.42 425.843 572.555 427.853C567.865 425.591 561.769 422.343 557.472 419.57L557.003 411.754L571.566 408.665Z"/><path fill="#EDE6AB" d="M454.744 408.518C459.203 409.724 464.89 410.598 469.601 411.611L468.851 419.997C464.452 422.659 459.79 425.302 455.337 427.905C450.454 426.91 444.511 423.687 439.98 421.363C444.91 417.175 449.854 412.774 454.744 408.518Z"/><path fill="#B8A769" d="M536.621 498.372L557.775 498.402L568.524 512.549C561.025 512.937 553.369 512.888 545.85 512.921C542.373 508.071 539.599 503.518 536.621 498.372Z"/><path fill="#D6C585" d="M473.22 498.55L491.186 498.579C488.959 502.008 482.692 512.758 479.625 513.466L460.805 513.233C464.918 508.318 469.057 503.424 473.22 498.55Z"/><path fill="#EDE6AB" d="M447.082 360.721C453.56 360.729 458.135 368.785 462.633 373.523C459.407 377.025 459.309 377.015 454.495 376.388C447.035 375.039 443.459 374.959 438.904 368.654C438.661 366.188 438.564 363.5 438.424 361.01L447.082 360.721Z"/><path fill="#D6C585" d="M586.795 360.237C588.598 360.149 587.911 359.83 589.075 360.817C590.936 370.405 578.359 376.97 569.683 376.452C568.108 375.534 566.403 374.383 564.851 373.389C568.043 369.47 573.228 364.005 576.811 360.544C580.14 360.46 583.468 360.357 586.795 360.237Z"/><path fill="#EDE6AB" d="M463.877 429.452C464.839 430.875 460.22 441.01 459.71 445.342C457.146 467.144 462.073 477.277 473.769 493.787L473.134 495.021C471.373 494.252 469.91 492.882 468.697 491.352C457.549 477.292 453.868 458.057 457.838 440.679C458.855 436.225 460.304 432.415 463.877 429.452Z"/><path fill="#D6C585" d="M500.663 486.738C509.578 486.674 519.227 486.43 528.075 486.805L523.919 492.403C521.415 494.343 507.964 493.482 504.217 493.408C502.837 491.977 499.798 489.123 499.685 487.153L500.663 486.738Z"/><path fill="#B3B07F" d="M566.679 431.408C567.488 431.74 569.117 432.68 569.424 433.513C576.546 452.881 567.975 480.043 551.831 491.71L550.952 491.51L550.748 490.897C553.967 487.671 556.893 484.166 559.492 480.422C571.527 463.09 570.257 450.668 566.679 431.408Z"/><path fill="#D6C585" d="M592.605 332.742C594.233 333.567 604.438 341.154 606.752 342.765C605.212 344.037 603.354 345.382 601.745 346.608L593.062 352.871C592.825 346.163 592.672 339.453 592.605 332.742Z"/><path fill="#EDE6AB" d="M434.286 332.978C435.003 333.743 434.29 350.536 434.232 352.724C432.053 351.274 429.678 349.505 427.525 347.968L420.475 343.063C424.861 339.694 429.778 336.249 434.286 332.978Z"/><path fill="#B8A769" d="M560.485 491.104C560.886 489.49 565.739 483.225 567.661 482.956L568.156 483.928C570.223 485.582 571.985 486.935 574.156 488.476C573.331 489.758 572.338 491.181 571.696 492.531C571.29 493.934 571.163 493.677 569.891 494.814C568.587 495.744 567.312 497.105 566.141 498.25C564.061 496.432 561.804 494.683 560.22 492.459L560.485 491.104Z"/><path fill="#B3B07F" d="M560.485 491.104C561.419 490.482 562.156 489.669 562.945 489.94C565.503 490.817 567.468 493.197 569.891 494.814C568.587 495.744 567.312 497.105 566.141 498.25C564.061 496.432 561.804 494.683 560.22 492.459L560.485 491.104Z"/><path fill="#0F231A" d="M560.485 491.104C560.886 489.49 565.739 483.225 567.661 482.956L568.156 483.928C566.278 484.195 566.057 484.697 564.691 486.522L564.208 487.175C565.643 488.285 570.417 492.349 571.696 492.531C571.29 493.934 571.163 493.677 569.891 494.814C567.468 493.197 565.503 490.817 562.945 489.94C562.156 489.669 561.419 490.482 560.485 491.104Z"/><path fill="#D6C585" d="M495.23 467.877C497.374 470.962 497.986 471.733 500.698 474.312C500.922 476.628 501.344 478.758 500.755 480.965C499.328 482.471 499.668 481.998 497.125 482.434C496.52 482.449 496.2 482.308 495.588 482.162C493.631 479.694 492.474 476.963 491.078 474.126L495.23 467.877Z"/><path fill="#D6C585" d="M531.199 467.825C532.802 469.672 534.255 471.935 535.652 473.968C533.994 477.755 533.346 479.083 531.075 482.509C529.276 482.342 528.84 482.373 527.119 481.677C525.747 479.458 526.201 477.495 526.196 474.604C528.011 472.455 529.584 470.126 531.199 467.825Z"/><path fill="#EDE6AB" d="M441.547 455.034L451.294 454.82C451.381 456.428 451.741 459.796 450.863 460.994C447.927 461.313 444.999 461.704 442.083 462.166L441.547 455.034Z"/><path fill="#D6C585" d="M581.386 407.599L587.312 406.121C590.142 410.519 592.594 415.149 594.64 419.961L594.08 420.386C589.387 415.576 586.336 413.203 581.386 407.599Z"/><path fill="#EDE6AB" d="M443.966 436.737L453.193 438.3L452.147 443.853L442.429 442.827L443.966 436.737Z"/><path fill="#EDE6AB" d="M451.944 472.61L452.905 472.711C454.064 473.894 454.459 475.775 454.981 477.414L447.68 480.454L446.83 480.372C445.568 478.832 445.144 476.439 444.599 474.452C446.951 473.807 449.56 473.205 451.944 472.61Z"/><path fill="#EDE6AB" d="M442.251 446.122C445.31 446.364 448.759 446.433 451.853 446.557C451.627 448.283 451.503 450.389 451.35 452.154L441.404 451.909L442.251 446.122Z"/><path fill="#EDE6AB" d="M448.783 464.653C450.183 464.442 449.813 464.481 451.238 464.607C452.527 466.26 452.306 467.253 452.653 469.539L446.105 470.989L444.733 471.345L443.875 470.81C443.139 468.924 442.976 467.802 442.58 465.796L448.783 464.653Z"/><path fill="#D6C585" d="M584.258 447.244L585.44 447.191C586.203 448.261 586.203 448.882 586.476 450.181C585.383 453.966 582.079 453.122 578.875 452.962C577.156 452.988 577.165 452.279 576.561 450.922C577.346 446.739 580.757 447.33 584.258 447.244Z"/><path fill="#D6C585" d="M583.86 438.647L584.673 438.666C585.72 440.184 585.665 442.365 585.837 444.278C583.603 444.454 581.33 444.739 579.099 444.991C577.448 445.076 578.265 445.211 576.64 444.262C575.828 442.647 575.957 443.484 576.314 441.654C578.407 438.929 580.45 439.131 583.86 438.647Z"/><path fill="#D6C585" d="M581.885 429.974L582.768 430.055C583.91 431.387 584.28 433.758 584.734 435.543L576.705 437.281L576.458 437.311C575.246 436.559 575.014 434.87 574.435 433.226L581.885 429.974Z"/><path fill="#B3B07F" d="M576.852 455.451C579.64 455.474 583.163 455.031 585.168 456.729C585.958 458.336 585.388 459.973 585.048 461.809C582.072 461.292 579.1 460.751 576.133 460.185L576.852 455.451Z"/><path fill="#B3B07F" d="M575.812 462.851C578.597 463.596 581.927 464.27 584.777 464.923L582.976 470.535C580.078 469.498 577.188 468.437 574.307 467.353L575.812 462.851Z"/><path fill="#EDE6AB" d="M485.076 422.465C490.075 425.701 494.252 426.718 494.078 433.238C488.093 430.277 484.427 429.888 485.076 422.465Z"/><path fill="#EDE6AB" d="M455.362 480.491C456.606 481.458 457.319 483.296 458.109 484.809C455.856 485.806 452.915 487.5 450.685 488.699C449.544 487.621 448.399 485.281 447.59 483.836C449.968 482.713 452.905 481.545 455.362 480.491Z"/><path fill="#B3B07F" d="M573.637 470.13L581.971 473.391C581.467 474.925 580.612 476.74 579.948 478.255C578.416 478.254 573.705 475.298 572.302 474.398C572.101 473.061 573.024 471.578 573.637 470.13Z"/><path fill="#B8A769" d="M570.446 477.058L578.554 481.34L575.941 485.501C574.493 485.343 569.568 482.04 568.059 481.092L570.446 477.058Z"/><path fill="#EDE6AB" d="M458.86 487.918C460.381 488.789 461.142 490.205 462.181 491.668L455.394 496.43C454.09 495.359 452.965 493.308 452.025 491.831C454.285 490.495 456.564 489.19 458.86 487.918Z"/><path fill="#EDE6AB" d="M540.953 422.512C541.609 423.45 541.597 426.554 541.706 427.975C538.931 429.584 535.987 431.483 533.236 433.18C529.958 429.686 538.396 424.59 540.953 422.512Z"/><path fill="#EDE6AB" d="M463.44 494.393C464.518 494.803 466.073 496.578 467.006 497.505C464.892 499.467 462.847 501.589 460.813 503.641C459.935 502.672 458.229 500.147 457.39 498.981L463.44 494.393Z"/><path fill="#EDE6AB" d="M441.858 406.682C443.276 406.994 443.41 407.093 444.77 407.601L444.986 408.452C444.161 410.603 440.986 413.031 439.123 414.718C438.008 415.943 438.245 416.014 436.86 416.468C437.004 414.128 440.52 408.798 441.858 406.682Z"/><path fill="#EDE6AB" d="M444.781 431.509C448.112 431.169 452.235 432.135 454.348 434.835C450.787 435.35 446.813 434.653 444.781 431.509Z"/><path fill="#0C3432" d="M203.489 590.344C196.611 565.201 193.609 531.933 194.206 506.029C196.145 422.649 231.324 343.501 291.919 286.193C353.371 227.534 434.648 193.051 520.065 195.138C604.371 197.457 684.255 233.366 741.952 294.878C749.514 301.564 777.875 335.667 780.712 343.55C786.955 351.759 794.727 366.918 799.301 376.041C829.224 435.73 837.559 502.273 828.653 568.158C827.578 575.599 826.413 583.027 825.16 590.441C822.887 590.564 821.063 590.529 818.785 590.465L810.062 590.421C809.666 588.266 810.315 587.997 809.133 585.618L809.166 586.084L807.963 584.642L808.587 584.935L807.762 584.709C806.437 585.708 806.058 585.813 806.134 587.636L804.852 588.679C804.585 589.292 804.384 590.166 803.857 590.212C791.276 591.311 777.931 589.699 765.367 588.86C762.621 588.677 761.818 591.881 756.257 590.343C755.597 589.29 755.992 588.237 756.112 586.675L755.79 585.918C755.126 586.128 753.412 587.401 752.74 587.873L752.001 587.545L751.582 585.934L750.877 585.709L749.683 590.482L740.09 590.492C752.799 548.763 753.838 504.35 743.095 462.072C741.364 454.975 738.457 442.902 735.19 436.425L734.887 436.565C734.163 436.043 728.679 421.736 727.386 419.539L727.082 420.917C728.215 422.51 728.122 421.721 727.95 423.272C726.188 423.724 726.427 423.262 724.79 422.982L724.222 423.639L722.658 419.937L710.614 397.091C710.515 397.018 699.744 381.239 698.419 379.175C689.877 365.878 678.72 356.893 668.515 345.471L667.955 344.84C619.758 302.199 564.085 279.759 499.412 283.635C359.677 292.008 254.318 432.759 282.606 569.183C283.734 574.628 285.68 580.02 286.827 585.439C286.785 586.851 286.927 590.943 288.884 591.15C298.237 592.137 372.412 589.697 374.787 592.502L374.141 592.576C371.246 592.929 366.194 594.523 363.897 594.406C358.085 594.11 352.334 594.757 346.501 594.8L289.541 594.729C284.339 594.734 256.535 594.861 253.195 595.89C217.954 596.27 182.475 595.736 147.201 595.957C140.767 604.275 133.322 612.441 127.191 620.781C135.136 630.09 143.675 639.307 151.337 648.757C145.61 655.688 132.949 670.278 126.651 676.667C133.402 686.105 141.595 694.904 148.684 704.042C189.756 704.057 232.744 703.439 273.637 704.211C276.738 706.216 362.319 704.52 370.569 705.164C375.935 705.582 373.532 708.281 376.496 710.182C389.06 719.166 398.444 723.829 411.556 731.246C410.434 731.669 410.87 731.616 409.677 731.394C408.025 732.285 405.625 734.033 403.798 733.45C401.437 731.642 395.085 728.39 392.243 726.722C383.931 721.846 374.98 716.377 367.919 709.819C362.677 709.503 356.772 709.606 351.475 709.584L348.267 713.49C341.883 721.247 326.724 740.268 320.083 746.618C318.473 745.341 314.985 742.725 313.713 741.348C305.091 733.884 289.661 718.806 282.588 709.67L270.921 709.578C306.782 749.513 327.249 765.895 374.123 791.126C373.694 792.84 373.335 793.656 373.673 795.399C374.278 795.949 374.76 796.345 374.867 797.209C368.852 794.989 357.869 788.561 352.218 785.327C317.108 765.232 290.27 740.408 264.204 709.777C252.923 709.416 239.838 709.751 228.408 709.731L145.496 709.724C128.796 690.252 112.512 669.094 96.4811 649.001L144.376 590.478C163.11 589.783 184.342 590.616 203.489 590.344Z"/><defs><linearGradient id="gradient_0" gradientUnits="userSpaceOnUse" x1="550.9765" y1="599.36823" x2="253.60976" y2="328.14484"><stop offset="0" stop-color="#BEB57B"/><stop offset="1" stop-color="#FAFDC8"/></linearGradient></defs><path fill="url(#gradient_0)" d="M203.489 590.344C196.611 565.201 193.609 531.933 194.206 506.029C196.145 422.649 231.324 343.501 291.919 286.193C353.371 227.534 434.648 193.051 520.065 195.138C604.371 197.457 684.255 233.366 741.952 294.878C740.587 295.735 739.231 296.606 737.885 297.493C732.631 291.762 707.039 266.748 701.107 265.628C694.882 261.119 688.257 256.124 681.818 251.984C615.443 209.301 542.896 192.314 464.698 204.783C421.414 211.803 380.154 228.077 343.732 252.494C338.786 255.858 330.08 261.855 325.717 265.816C330.749 279.151 340.011 288.954 348.8 299.994C352.703 304.897 357.666 311.218 361.836 315.689C372.615 307.947 383.128 300.663 394.863 294.46C396.988 293.336 399.703 291.876 401.681 290.544C396.054 276.756 387.613 260.854 381.261 247.059C366.477 254.693 356.616 259.914 342.998 269.494C346.849 275.063 351.989 282.065 356.244 287.328C360.402 285.058 368.816 278.619 373.573 279.092C374.464 279.181 375.982 281.565 375.202 282.38C369.426 286.744 361.347 291.398 354.813 294.668C350.535 289.717 338.813 274.016 335.948 268.658C342.622 262.311 375.252 241.193 382.996 241.126C388.159 244.686 400.965 277.029 405.141 284.378C406.266 286.356 408.517 291.564 407.455 292.989C405.887 295.093 393.963 301.124 392.01 302.222C385.522 305.79 379.278 309.785 373.32 314.18C370.045 316.616 364.992 320.917 362.01 322.873C358.291 320.267 355.548 317.392 352.686 313.87C340.982 299.465 328.319 285.948 320.391 269.016C314.323 274.036 308.302 279.159 302.464 284.444C245.86 335.676 208.487 405.724 201.222 482.008C197.889 518.13 200.535 554.555 209.055 589.817C211.432 584.777 213.562 582.985 219.108 581.127C234.247 576.057 251.949 573.617 267.049 569.337C263.5 553.208 261.708 538.693 259.78 522.364C244.252 522.123 228.171 521.73 212.669 522.227C212.64 535.424 215.023 554.833 217.251 567.91C227.749 565.382 242.804 562.372 252.711 559.488C251.706 551.233 249.945 541.64 249.386 533.602C241.547 533.865 234.01 534.75 226.346 535.101L228.726 552.279C232.259 551.849 236.119 551.978 238.352 549.355C239.104 544.569 230.03 541.553 242.935 540.887L244.634 554.354C237.751 556.166 231.434 557.152 224.385 558.139C222.828 549.368 221.502 539.028 221.194 530.158C230.011 529.153 244.971 528.396 253.793 528.494L258.569 562.916C254.4 564.678 217.771 573.57 214.097 573.14C209.562 567.37 207.443 527 207.425 517.585C216.202 516.232 254.895 516.094 263.567 517.882L263.79 518.574C265.822 524.978 266.79 537.594 267.855 544.705C269.602 555.764 272.027 566.705 275.117 577.466C276.221 581.438 277.397 587.076 279.893 590.234L280.702 590.639C282.869 588.606 277.583 571.905 276.711 567.461C274.881 558.249 273.753 548.912 273.337 539.53C270.51 482.04 284.749 429.836 318.143 382.57C363.647 318.163 435.886 276.639 515.812 277.69C562.007 278.287 606.959 292.737 644.85 319.168C652.113 324.209 662.499 331.882 668.572 338.253C669.002 341.822 678.176 346.785 678.227 349.636C670.603 349.586 671.659 344.934 667.955 344.84C619.758 302.199 564.085 279.759 499.412 283.635C359.677 292.008 254.318 432.759 282.606 569.183C283.734 574.628 285.68 580.02 286.827 585.439C286.785 586.851 286.927 590.943 288.884 591.15C298.237 592.137 372.412 589.697 374.787 592.502L374.141 592.576C371.246 592.929 366.194 594.523 363.897 594.406C358.085 594.11 352.334 594.757 346.501 594.8L289.541 594.729C284.339 594.734 256.535 594.861 253.195 595.89C217.954 596.27 182.475 595.736 147.201 595.957C140.767 604.275 133.322 612.441 127.191 620.781C135.136 630.09 143.675 639.307 151.337 648.757C145.61 655.688 132.949 670.278 126.651 676.667C133.402 686.105 141.595 694.904 148.684 704.042C189.756 704.057 232.744 703.439 273.637 704.211C276.738 706.216 362.319 704.52 370.569 705.164C375.935 705.582 373.532 708.281 376.496 710.182C389.06 719.166 398.444 723.829 411.556 731.246C410.434 731.669 410.87 731.616 409.677 731.394C408.025 732.285 405.625 734.033 403.798 733.45C401.437 731.642 395.085 728.39 392.243 726.722C383.931 721.846 374.98 716.377 367.919 709.819C362.677 709.503 356.772 709.606 351.475 709.584L348.267 713.49C341.883 721.247 326.724 740.268 320.083 746.618C318.473 745.341 314.985 742.725 313.713 741.348C305.091 733.884 289.661 718.806 282.588 709.67L270.921 709.578C306.782 749.513 327.249 765.895 374.123 791.126C373.694 792.84 373.335 793.656 373.673 795.399C374.278 795.949 374.76 796.345 374.867 797.209C368.852 794.989 357.869 788.561 352.218 785.327C317.108 765.232 290.27 740.408 264.204 709.777C252.923 709.416 239.838 709.751 228.408 709.731L145.496 709.724C128.796 690.252 112.512 669.094 96.4811 649.001L144.376 590.478C163.11 589.783 184.342 590.616 203.489 590.344Z"/><path fill="#0C3432" d="M335.691 709.507C339.057 709.462 341.66 709.485 345.013 709.695C336.265 719.267 328.022 730.023 319.2 739.804C317.398 738.075 313.437 734.083 311.643 732.722C304.413 725.246 296.025 717.779 289.537 709.656L300.205 709.691C306.01 716.266 311.624 722.551 317.9 728.683C322.209 725.272 332.157 714.068 335.691 709.507Z"/><path fill="#D6C585" d="M345.013 709.695C346.292 709.384 347.804 708.281 348.619 708.433L347.922 710.229L348.38 711.031C349.039 712.204 348.795 711.604 348.267 713.49C341.883 721.247 326.724 740.268 320.083 746.618C318.473 745.341 314.985 742.725 313.713 741.348L313.881 740.674C317.537 740.599 318.896 753.209 327.468 734.391C328.2 735.299 327.803 734.949 328.603 735.501L329.857 733.889C329.073 733.263 329.103 733.346 328.139 733.126L327.894 731.86C327.169 731.989 320.382 739.844 319.25 741C316.517 738.072 313.977 736.865 311.449 733.589L311.643 732.722C313.437 734.083 317.398 738.075 319.2 739.804C328.022 730.023 336.265 719.267 345.013 709.695Z"/><path fill="#0C3432" d="M267.277 574.615L267.948 574.787C269.792 577.492 272.016 586.426 272.991 590.061C257.883 590.643 240.292 590.316 224.962 590.383C222.376 590.479 221.368 590.92 219.64 589.502C219.016 587.52 218.806 588.2 219.336 586.775C223.421 584.882 232.563 582.889 237.324 581.731C247.296 579.307 257.28 576.935 267.277 574.615Z"/><path fill="#0C3432" d="M122.915 625.317C125.929 627.168 138.111 642.084 142.044 646.016C136.597 646.318 129.994 646.2 124.441 646.228L105.988 646.412C111.068 640.92 118.182 631.435 122.915 625.317Z"/><path fill="#0C3432" d="M107.663 651.687C118.606 652.049 130.309 651.81 141.309 651.766C138.393 655.444 134.29 659.783 131.101 663.345C128.444 666.431 125.811 669.538 123.202 672.665C120.605 669.897 108.522 655.312 107.106 652.379L107.663 651.687Z"/><path fill="#0F231A" d="M308.162 709.745C314.75 709.486 321.982 709.612 328.625 709.611C326.832 711.962 324.095 714.925 322.093 717.213C320.712 718.841 319.206 720.464 317.773 722.054C315.683 719.606 308.582 712.272 308.162 709.745Z"/><defs><linearGradient id="gradient_1" gradientUnits="userSpaceOnUse" x1="835.95264" y1="473.44965" x2="770.86908" y2="468.07263"><stop offset="0" stop-color="#6C6E47"/><stop offset="1" stop-color="#A39F6B"/></linearGradient></defs><path fill="url(#gradient_1)" d="M770.763 338.402C772.544 339.348 773.171 340.084 774.594 341.54L774.607 341.286C777.808 344.896 781.668 353.716 784.953 354.662L786.001 354.441C785.814 351.414 781.7 348.21 780.712 343.55C786.955 351.759 794.727 366.918 799.301 376.041C829.224 435.73 837.559 502.273 828.653 568.158C827.578 575.599 826.413 583.027 825.16 590.441C822.887 590.564 821.063 590.529 818.785 590.465C822.164 580.793 823.937 557.809 824.921 547.239C832.1 470.151 812.909 402.83 770.763 338.402Z"/><path fill="#B8A769" d="M668.572 338.253C679.016 346.76 709.955 381.311 714.694 393.565C721.339 403.823 731.644 424.722 735.19 436.425L734.887 436.565C734.163 436.043 728.679 421.736 727.386 419.539L727.082 420.917C728.215 422.51 728.122 421.721 727.95 423.272C726.188 423.724 726.427 423.262 724.79 422.982L724.222 423.639L722.658 419.937L710.614 397.091C710.515 397.018 699.744 381.239 698.419 379.175C689.877 365.878 678.72 356.893 668.515 345.471L667.955 344.84C671.659 344.934 670.603 349.586 678.227 349.636C678.176 346.785 669.002 341.822 668.572 338.253Z"/><path fill="#B3B07F" d="M701.107 265.628C707.039 266.748 732.631 291.762 737.885 297.493C738.695 298.601 739.016 298.758 739.3 300.026C732.683 293.563 726.404 287.376 719.378 281.333C713.429 288.813 704.801 300.068 698.199 306.597L697.782 307.18C694.36 311.374 688.38 318.553 684.653 322.363C683.187 324.713 677.831 330.57 675.915 332.498L671.78 328.713L681.46 318.146C682.476 316.375 688.091 310.318 689.832 308.472C690.64 306.951 697.579 299.089 699.121 297.306C704.826 290.708 710.061 284.6 715.284 277.59C710.718 273.32 705.96 269.559 701.107 265.628Z"/><path fill="#D6C585" d="M693.156 309.622L692.574 308.629C692.617 307.997 692.663 306.586 693.067 306.145C698.267 300.463 704.11 295.187 708.842 289.064C709.72 287.928 709.474 288.009 710.704 286.919L711.658 287.046C712.454 289.661 699.422 300.098 698.199 306.597L697.782 307.18C695.351 307.469 695.025 307.856 693.156 309.622Z"/><path fill="#0C3432" d="M757.911 578.888C763.068 579.301 802.94 583.313 805.175 585.039C805.244 586.773 805.149 587.017 804.852 588.679C804.585 589.292 804.384 590.166 803.857 590.212C791.276 591.311 777.931 589.699 765.367 588.86C762.621 588.677 761.818 591.881 756.257 590.343C755.597 589.29 755.992 588.237 756.112 586.675C756.723 584.134 757.429 581.444 757.911 578.888Z"/><path fill="#B8A769" d="M741.952 294.878C749.514 301.564 777.875 335.667 780.712 343.55C781.7 348.21 785.814 351.414 786.001 354.441L784.953 354.662C781.668 353.716 777.808 344.896 774.607 341.286L774.594 341.54C773.171 340.084 772.544 339.348 770.763 338.402C769.689 337.273 767.691 334.423 766.722 333.02C758.44 321.022 749.096 310.776 739.3 300.026C739.016 298.758 738.695 298.601 737.885 297.493C739.231 296.606 740.587 295.735 741.952 294.878Z"/><path fill="#7B7C52" d="M750.877 585.709C751.784 581.89 752.394 577.012 755.157 574.476C760.025 572.956 803.143 578.749 811.156 579.75C810.901 582.905 810.627 587.336 810.062 590.421C809.666 588.266 810.315 587.997 809.133 585.618L809.166 586.084L807.963 584.642L808.587 584.935L807.762 584.709C806.437 585.708 806.058 585.813 806.134 587.636L804.852 588.679C805.149 587.017 805.244 586.773 805.175 585.039C802.94 583.313 763.068 579.301 757.911 578.888C757.429 581.444 756.723 584.134 756.112 586.675L755.79 585.918C755.126 586.128 753.412 587.401 752.74 587.873L752.001 587.545L751.582 585.934L750.877 585.709Z"/><path fill="#96976B" d="M751.582 585.934L752.26 585.181C752.45 583.176 753.834 578.696 755.229 577.307L755.773 577.518C756.101 579.794 754.016 583.124 755.774 585.364C755.779 585.549 755.785 585.734 755.79 585.918C755.126 586.128 753.412 587.401 752.74 587.873L752.001 587.545L751.582 585.934Z"/><path fill="#0C3432" d="M559.917 213.364C573.8 213.67 615.987 226.585 628.668 233.151C626.097 247.778 619.243 262.173 614.587 276.254C613.629 279.149 611.604 281.372 612.728 284.574C613.781 285.678 614.454 285.707 615.926 286.108C618.702 284.759 632.613 244.445 637.813 239.806C639.06 238.694 642.121 239.648 643.501 240.117C656.106 244.401 693.324 267.808 702.022 278.081C702.17 278.256 702.322 278.426 702.469 278.602C702.558 278.707 702.642 278.815 702.728 278.922C701.276 281.137 700.549 282.43 698.65 284.316C695.037 289.116 675.143 314.104 671.103 317.475C669.896 319.165 668.087 320.668 666.539 322.096C662.863 319.983 660.274 317.893 656.952 315.274C644.443 307.897 633.001 299.295 619.406 293.586C614.985 291.73 609.976 289.626 605.828 287.288C610.957 270.205 617.898 253.657 622.66 236.602C602.571 228.144 584.948 223.509 563.79 219.148C562.212 224.202 560.947 232.933 560.041 238.402C558.517 247.678 556.935 256.944 555.298 266.201C570.076 269.206 582.101 272.422 596.567 276.515C600.162 268.489 604.741 253.274 606.893 244.69C604.588 243.681 602.463 242.838 600.32 241.508C600.204 239.616 599.033 239.885 600.314 237.919L601.302 238.135L601.619 237.386C605.84 238.715 608.83 240.007 612.705 242.247C611.095 250.672 603.587 276.163 598.981 282.864C584.282 279.184 569.879 274.208 554.806 271.574C553.506 271.347 551.668 270.568 550.562 269.797C549.525 264.473 557.289 218.636 559.917 213.364Z"/><defs><linearGradient id="gradient_2" gradientUnits="userSpaceOnUse" x1="680.8479" y1="309.34937" x2="553.79919" y2="224.25839"><stop offset="0" stop-color="#C5C18C"/><stop offset="1" stop-color="#EEEBB5"/></linearGradient></defs><path fill="url(#gradient_2)" d="M559.917 213.364C573.8 213.67 615.987 226.585 628.668 233.151C626.097 247.778 619.243 262.173 614.587 276.254C613.629 279.149 611.604 281.372 612.728 284.574C613.781 285.678 614.454 285.707 615.926 286.108C618.702 284.759 632.613 244.445 637.813 239.806C639.06 238.694 642.121 239.648 643.501 240.117C656.106 244.401 693.324 267.808 702.022 278.081C702.17 278.256 702.322 278.426 702.469 278.602C702.558 278.707 702.642 278.815 702.728 278.922C701.276 281.137 700.549 282.43 698.65 284.316L697.878 283.877C693.759 288.697 691.155 292.353 685.377 295.294C686.834 291.099 693.834 285.46 695.512 280.729C694.406 274.231 649.096 247.922 640.997 244.772C638.155 249.781 634.953 257.371 632.538 262.751C628.808 271.058 624.617 279.955 621.284 288.386C627.082 291.258 656.968 306.89 660.106 311.056C660.668 312.537 661.5 314.045 661.181 315.493C659.616 315.58 659.71 315.538 658.237 314.944L656.952 315.274C644.443 307.897 633.001 299.295 619.406 293.586C614.985 291.73 609.976 289.626 605.828 287.288C610.957 270.205 617.898 253.657 622.66 236.602C602.571 228.144 584.948 223.509 563.79 219.148C562.212 224.202 560.947 232.933 560.041 238.402C558.517 247.678 556.935 256.944 555.298 266.201C570.076 269.206 582.101 272.422 596.567 276.515C600.162 268.489 604.741 253.274 606.893 244.69C604.588 243.681 602.463 242.838 600.32 241.508C600.204 239.616 599.033 239.885 600.314 237.919L601.302 238.135L601.619 237.386C605.84 238.715 608.83 240.007 612.705 242.247C611.095 250.672 603.587 276.163 598.981 282.864C584.282 279.184 569.879 274.208 554.806 271.574C553.506 271.347 551.668 270.568 550.562 269.797C549.525 264.473 557.289 218.636 559.917 213.364Z"/><path fill="#B3B07F" d="M666.173 314.909C673.792 307.623 679.996 298.876 686.77 290.821C688.983 288.19 693.014 282.645 695.512 280.729C693.834 285.46 686.834 291.099 685.377 295.294C691.155 292.353 693.759 288.697 697.878 283.877L698.65 284.316C695.037 289.116 675.143 314.104 671.103 317.475C669.896 319.165 668.087 320.668 666.539 322.096C662.863 319.983 660.274 317.893 656.952 315.274L658.237 314.944C659.71 315.538 659.616 315.58 661.181 315.493C661.5 314.045 660.668 312.537 660.106 311.056C661.611 312.076 664.922 314.822 666.173 314.909Z"/><path fill="#D6C585" d="M666.173 314.909C672.766 312.96 677.344 302.341 680.084 303.548C677.696 309.667 673.322 309.804 671.103 317.475C669.896 319.165 668.087 320.668 666.539 322.096C662.863 319.983 660.274 317.893 656.952 315.274L658.237 314.944C659.71 315.538 659.616 315.58 661.181 315.493C661.5 314.045 660.668 312.537 660.106 311.056C661.611 312.076 664.922 314.822 666.173 314.909Z"/><path fill="#EDE6AB" d="M644.196 255.48C650.805 257.935 667.726 267.583 673.252 272.076L673.143 272.819C671.693 276.32 666.254 283.147 663.757 286.372C663.76 284.676 664.311 282.938 663.399 281.57C662.07 281.683 661.67 281.719 660.471 282.29L659.695 282.061C662.066 279.14 663.998 276.56 666.193 273.5C663.448 271.051 650.581 264.285 646.939 262.717C643.363 269.106 640.186 275.71 637.427 282.491C647.41 288.071 654.98 292.844 664.232 299.639L665.557 300.408C666.413 300.088 666.942 299.865 667.765 299.469L668.725 299.867C667.701 303.446 665.284 304.397 661.932 304.418C653.464 297.218 640.388 290.727 630.923 284.43C634.173 276.844 640.234 262.012 644.196 255.48Z"/><path fill="#D6C585" d="M666.193 273.5C665.765 275.868 664.846 277.535 665.362 279.764C667.318 279.403 669.706 274.337 673.143 272.819C671.693 276.32 666.254 283.147 663.757 286.372C663.76 284.676 664.311 282.938 663.399 281.57C662.07 281.683 661.67 281.719 660.471 282.29L659.695 282.061C662.066 279.14 663.998 276.56 666.193 273.5Z"/><path fill="#D6C585" d="M664.232 299.639C670.324 292.971 674.638 286.211 679.822 278.908C680.929 277.348 680.641 277.688 682.209 277.491C684.207 278.869 684.309 278.455 685.004 280.301C684.672 282.035 683.506 283.145 682.372 284.568C679.864 288.567 668.944 304.623 665.626 306.481C663.757 305.974 663.432 305.581 661.932 304.418C665.284 304.397 667.701 303.446 668.725 299.867L667.765 299.469C666.942 299.865 666.413 300.088 665.557 300.408L664.232 299.639Z"/><path fill="#B3B07F" d="M682.209 277.491C684.207 278.869 684.309 278.455 685.004 280.301C684.672 282.035 683.506 283.145 682.372 284.568L680.566 285.176C679.418 286.55 679.036 287.192 677.455 288.079L676.72 287.72C676.393 285.11 680.49 279.905 682.209 277.491Z"/><path fill="#EDE6AB" d="M646.748 279.907C647.846 278.397 649.139 276.851 650.316 275.388C653.655 277.557 656.501 279.674 659.695 282.061L660.471 282.29C661.67 281.719 662.07 281.683 663.399 281.57C664.311 282.938 663.76 284.676 663.757 286.372C662.938 287.373 662.916 287.338 661.827 288.063C657.46 287.619 650.431 282.47 646.748 279.907Z"/><path fill="#EDE6AB" d="M218.919 431.535C228.872 431.358 265.572 440.954 274.844 445.497C274.575 453.124 269.712 469.698 268.401 478.166C267.776 482.203 265.591 496.159 264.705 499.104C258.773 499.015 251.999 498.38 245.994 498.058C233.269 497.457 220.55 496.743 207.838 495.917C207.894 482.179 212.886 443.621 218.919 431.535Z"/><path fill="#0C3432" d="M222.859 436.891C236.614 439.589 255.873 444.47 269.298 448.479L260.242 493.807L213.316 490.933C213.799 475.799 217.933 451.064 222.859 436.891Z"/><path fill="#EDE6AB" d="M228.856 445.806C235.621 446.619 254.747 451.59 261.766 453.523C259.576 461.886 256.868 479.323 254.029 486.467C248.178 486.758 227.127 483.581 221.371 482.173C222.911 471.487 226.096 456.185 228.856 445.806Z"/><path fill="#0C3432" d="M232.924 452.242C240.512 453.793 248.073 455.469 255.605 457.268C253.646 464.958 252.501 473.898 250.233 481.128C244.891 480.009 233.071 478.948 227.253 478.25C228.647 469.648 230.835 460.698 232.924 452.242Z"/><path fill="#EDE6AB" d="M242.13 459.439C243.973 459.837 245.644 460.309 247.462 460.814C246.286 465.181 246.634 468.534 244.201 472.217C242.565 473.135 242.843 472.773 240.474 472.406L239.583 472.316C237.439 472.084 237.135 472.082 236.016 470.688C236.242 467.573 239.117 466.231 240.749 463.807C241.157 463.201 241.893 460.342 242.13 459.439Z"/><path fill="#0F231A" d="M236.238 457.432C237.658 457.562 237.669 457.504 238.958 458.062L238.956 458.835L236.467 461.115C236.367 461.276 235.713 461.796 235.539 461.943L235.122 461.491C235.036 459.407 235.167 459.316 236.238 457.432Z"/><defs><linearGradient id="gradient_3" gradientUnits="userSpaceOnUse" x1="815.55719" y1="562.16528" x2="760.18567" y2="518.02142"><stop offset="0" stop-color="#75764C"/><stop offset="1" stop-color="#8B8D60"/></linearGradient></defs><path fill="url(#gradient_3)" d="M760.239 516.23C773.33 513.953 804.407 511.346 817.787 511.34C818.371 522.69 816.56 550.956 814.102 561.867C813.726 565.153 813.308 567.838 812.72 571.095C810.655 571.075 806.388 571.22 804.622 570.623C791.74 570.473 769.148 568.077 755.808 566.883C756.665 558.407 758.177 549.888 758.905 541.257C759.62 532.786 759.819 524.697 760.239 516.23Z"/><path fill="#7B7C52" d="M814.102 561.867C813.726 565.153 813.308 567.838 812.72 571.095C810.655 571.075 806.388 571.22 804.622 570.623C808.399 569.734 811.152 570.919 812.312 565.419L812.343 565.723C812.724 563.931 812.685 563.175 814.102 561.867Z"/><path fill="#0C3432" d="M804.964 517.213C807.158 517.018 810.215 517.018 812.482 516.946C812.68 532.658 810.374 549.567 808.264 565.103C797.495 565.126 783.928 563.959 773.074 563.081C769.734 563.01 765.638 562.611 762.247 562.366C762.384 559.487 762.77 556.309 763.16 553.435C764.645 542.515 765.106 531.585 766.027 520.622C778.521 519.102 792.421 518.048 804.964 517.213Z"/><path fill="#7B7C52" d="M771.896 525.497L803.86 525.671C803.671 534.232 803.116 549.159 801.259 557.45C790.303 557.587 779.974 557.105 769.038 556.433C768.886 548.701 770.948 533.644 771.896 525.497Z"/><path fill="#0C3432" d="M776.178 531.006C783.522 530.983 790.867 531.051 798.21 531.212C797.967 537.868 797.655 545.449 796.575 551.996C789.163 552.101 781.749 551.942 774.348 551.518C774.657 544.848 775.485 537.665 776.178 531.006Z"/><path fill="#7B7C52" d="M781.631 538.945C783.895 538.864 787.144 538.41 788.932 539.499C789.948 541.035 789.552 542.998 789.437 544.928L781.357 544.767L781.631 538.945Z"/><path fill="#EDE6AB" d="M494.467 209.788C502.996 209.007 540.639 208.827 548.263 212.133C550.262 217.203 544.932 267.449 542.13 269.66C525.759 270.645 506.818 266.574 489.843 269.837C487.25 270.336 478.8 271.258 476.825 270.159C474.363 266.171 468.48 226.016 466.863 218.303C452.754 220.403 424.37 227.578 411.6 233.647C415.357 244.228 419.317 256.197 423.522 266.501C431.765 263.42 440.389 260.683 448.763 257.917C447.647 254.718 444.2 246.386 445.323 243.657C446.853 242.947 447.223 242.633 448.922 242.777C451.126 245.08 454.114 258.199 454.897 261.831C449.938 263.694 443.452 265.164 438.245 266.918C432.448 268.871 426.004 271.514 420.197 273.001C417.51 266.968 405.918 235.64 406.056 230.626C409.326 225.443 462.21 211.34 469.767 213.783C472.586 216.225 472.665 220.068 473.351 223.893C475.597 237.767 477.942 251.624 480.387 265.464C496.372 262.731 522.373 263.406 538.489 264.379C540.928 254.22 543.105 227.233 543.932 216.16C525.147 213.998 505.49 214.285 486.659 215.665C487.159 226.09 488.429 241.89 490.299 252.151C503.293 251.169 515.526 251.354 528.541 251.433C529.681 244.932 529.886 235.015 530.15 228.245C521.658 227.147 509.341 226.672 500.909 227.507C501.173 231.616 501.413 235.726 501.627 239.837C505.522 239.801 511.51 240.688 513.239 237.095C514.091 235.323 519.464 234.897 521.439 234.574C521.514 238.041 521.388 240.384 521.126 243.855C513.156 244.159 505.183 244.385 497.208 244.531C496.6 240.558 494.962 226.776 496.253 223.533C501.092 220.777 529.066 222.963 535.731 223.871C536.013 231.677 535.001 249.101 532.263 256.324C531.914 257.246 507.789 256.322 504.169 256.649C498.88 257.127 491.229 257.686 485.845 257.574C484.37 251.711 479.674 215.05 482.662 211.67C486.036 209.827 490.543 210.007 494.467 209.788Z"/><path fill="#EDE6AB" d="M262.936 340.457C269.066 343.685 308.403 371.379 311.753 375.919C304.619 387.628 296.326 397.777 290.66 410.537C288.944 414.399 284.278 425.619 281.749 427.9C274.534 427.206 253.927 418.136 245.648 415.589C241.499 414.313 229.792 410.59 225.932 409.048C230.401 394.659 243.201 369.734 251.565 356.773C252.184 355.814 253.826 354.522 255.039 354.67C264.616 355.834 288.499 372.287 295.049 378.215C293.684 381.265 289.323 388.117 287.455 391.378C283.529 398.326 279.765 405.365 276.165 412.488C266.579 409.996 253.734 404.171 243.812 400.57C246.093 393.824 254.81 376.434 258.563 370.54L263.783 372.783C268.242 375.173 272.709 377.471 276.946 380.238C275.621 384.848 271.532 392.57 269.283 397.109C265.936 395.966 263.735 395.074 260.504 393.624C261.512 391.696 262.538 389.777 263.58 387.868C265.625 388.805 265.218 388.993 267.117 388.764C268.791 387.527 269.563 384.694 270.371 382.627L260.604 377.416C257.273 383.307 253.898 390.741 250.913 396.937C258.348 400.465 265.58 403.603 273.096 407.283C274.22 405.401 275.437 402.891 276.378 400.897C279.859 393.518 283.944 386.889 288.377 380.058C281.186 374.1 264.394 363.797 256.073 359.909C249.162 368.449 237.221 395.031 232.752 405.215C235.015 406.03 237.331 406.828 239.63 407.536C253.12 411.69 266.258 417.911 279.73 422.032C288.434 402.53 292.743 394.458 304.622 376.754C298.59 372.08 292.448 367.552 286.2 363.173C282.296 360.464 262.407 347.229 260.31 344.64C260.656 342.906 261.787 341.864 262.936 340.457Z"/><path fill="#EDE6AB" d="M315.356 285.861C315.544 285.864 315.733 285.848 315.92 285.87C320.677 286.424 351.295 322.351 356.772 328.315C355.257 329.876 354.026 330.706 352.283 331.991C340.026 318.588 328.797 305.03 315.833 291.895C302.902 301.108 286.149 319.703 276.406 332.281C286.971 341.388 303.24 353.112 314.676 362.069C322.184 353.055 330.785 343.888 338.84 335.415C333.233 328.57 321.215 316.102 314.47 310.346C311.492 312.545 307.207 316.998 304.438 319.71C301.216 322.92 298.09 326.5 295.035 329.89C297.925 332.888 305.721 338.432 306.93 341.121C306.42 343.224 306.946 342.407 305.495 343.774C301.13 344.33 290.797 333.728 287.832 330.341C290.6 326.452 311.421 302.986 314.815 304.508C323.385 308.351 340.326 327.829 346.071 335.355C343.351 339.217 335.544 346.758 331.884 350.801C326.54 356.704 320.947 363.668 315.572 369.276C308.565 365.01 302.193 359.522 295.657 354.576C287.992 348.775 279.61 343.172 272.648 336.571C271.523 335.505 270.148 334.357 270.344 332.663C271.045 326.604 295.782 301.921 301.682 296.58C305.966 292.701 310.428 288.898 315.356 285.861Z"/><defs><linearGradient id="gradient_4" gradientUnits="userSpaceOnUse" x1="821.66754" y1="487.72928" x2="713.78784" y2="435.78589"><stop offset="0" stop-color="#7F8054"/><stop offset="1" stop-color="#A3A174"/></linearGradient></defs><path fill="url(#gradient_4)" d="M735.212 410.995C733.101 407.546 727.257 396.432 725.83 392.808C726.646 391.34 728.137 390.841 729.696 390.023C732.01 393.4 733.369 396.003 735.291 399.65C743.339 414.718 747.919 425.828 753.245 442.257C769.139 438.773 784.87 432.254 800.832 428.81C802.412 428.469 803.696 428.468 805.049 429.317C810.333 438.264 816.836 488.501 817.321 500.723C807.381 502.979 794.459 504.591 784.235 506.218C777.304 507.322 765.998 509.31 759.519 509.736C758.246 494.362 756.613 479.688 753.284 464.607C752.73 462.096 751.976 459.312 752.067 456.762L752.908 456.237C755.548 454.516 760.296 453.213 763.446 452.192C764.891 452.396 766.08 452.494 767.465 452.98C767.761 454.043 767.795 455.415 768.024 456.163L760.36 458.703C759.225 459.142 759.208 459.256 758.264 460.058C758.084 461.675 761.425 478.703 761.892 481.731C762.978 489.029 763.895 496.351 764.644 503.691C776.97 502.526 799.376 498.796 811.345 496.04C810.162 476.284 805.991 453.847 801.093 434.688C793.321 435.829 775.502 441.568 767.054 443.91C763.332 445.234 753.554 449.447 749.878 447.862C749.172 447.558 748.551 445.704 748.257 444.865C744.283 430.644 739.68 423.487 735.212 410.995Z"/><path fill="#96976B" d="M735.212 410.995C733.101 407.546 727.257 396.432 725.83 392.808C726.646 391.34 728.137 390.841 729.696 390.023C732.01 393.4 733.369 396.003 735.291 399.65C733.102 398.914 733.215 398.532 731.465 399.089C730.619 403.069 735.453 407.074 735.212 410.995Z"/><path fill="#8F8E63" d="M752.908 456.237C755.548 454.516 760.296 453.213 763.446 452.192C764.891 452.396 766.08 452.494 767.465 452.98C767.761 454.043 767.795 455.415 768.024 456.163L760.36 458.703L759.819 457.35L760.146 457.144C759.735 456.066 759.59 455.637 758.808 454.789L759.211 454.682C756.815 455.522 755.996 455.783 753.482 456.156L752.908 456.237Z"/><path fill="#8F8E63" d="M748.257 444.865C750.223 445.509 754.471 445.502 756.681 445.388C759.704 440.484 759.173 444.344 760.303 444.183C762.691 443.844 764.503 443.732 767.054 443.91C763.332 445.234 753.554 449.447 749.878 447.862C749.172 447.558 748.551 445.704 748.257 444.865Z"/><path fill="#96976B" d="M764.168 368.367C764.399 368.397 764.638 368.391 764.861 368.458C769.344 369.792 781.63 403.725 783.916 409.999C778.243 413.303 761.502 419.784 755.127 422.003L753.85 421.877C752.198 420.37 737.218 390.614 734.876 386.236C739.218 382.469 758.806 371.138 764.168 368.367Z"/><path fill="#0C3432" d="M763.031 375.45C765.684 377.282 775.203 402.408 777.034 407.023C772.449 409.671 761.524 413.727 756.115 415.877C754.389 413.129 751.597 406.832 749.983 403.523C747.409 398.335 744.71 393.21 741.889 388.152C748.753 383.62 755.807 379.383 763.031 375.45Z"/><path fill="#96976B" d="M754.366 393.347C753.559 391.415 753.474 391.994 753.809 390.236C755.295 388.628 756.215 388.28 758.168 387.19C760.407 391.366 762.762 395.992 765.265 399.973C765.675 401.109 765.666 401.028 765.594 402.234C764.326 404.081 762.32 404.664 760.192 405.64C758.238 401.962 756.161 397.185 754.366 393.347Z"/><path fill="#8F8E63" d="M754.366 393.347C756.562 395.14 756.698 396.219 757.968 398.677L758.5 398.919C760.827 399.993 762.608 401.659 764.371 401.958C765.294 400.945 764.896 401.481 765.265 399.973C765.675 401.109 765.666 401.028 765.594 402.234C764.326 404.081 762.32 404.664 760.192 405.64C758.238 401.962 756.161 397.185 754.366 393.347Z"/><path fill="#EDE6AB" d="M456.119 228.633C458.095 228.366 458.347 228.28 460.275 228.587C462.91 231.398 468.967 266.128 469.23 271.949C464.216 273.315 458.625 274.306 453.472 275.668C440.081 279.205 427.454 283.451 415.154 289.855C409.401 281.589 396.684 247.435 392.118 236.163C391.844 235.485 392.22 235.339 392.765 234.597C394.371 233.78 394.344 233.666 396.205 233.791C397.964 235.145 409.606 265.169 411.664 269.859C413.516 274.357 415.024 277.965 417.231 282.328C436.746 274.874 443.853 272.752 463.77 267.674C461.881 256.307 459.302 244.989 456.722 233.763C447.344 235.517 436.765 238.438 427.668 241.227C428.708 244.993 429.09 246.411 430.76 249.916L436.794 247.29L438.971 253.101C435.239 254.565 431.653 255.653 427.837 256.84C425.757 252.472 422.317 242.14 421.628 237.538C431.541 233.945 445.745 230.733 456.119 228.633Z"/><path fill="#B3B07F" d="M709.06 306.944C712.402 302.905 716.486 298.009 720.657 294.835C728.276 299.386 762.785 335.571 761.261 342.968C759.809 344.843 754.131 349.333 752.115 350.257C749.91 350.333 749.908 350.823 747.708 352.175C747.063 350.123 747.645 350.907 745.998 349.672C746.506 348.803 746.991 348.022 747.524 347.171C747.994 346.667 754.356 341.69 755.244 340.972C746.113 327.886 739.646 321.08 729.328 309.415C726.762 307.057 723.779 304.178 721.104 302.04C710.044 313.089 699.294 324.444 688.868 336.094C692.099 340.14 696.367 344.17 699.953 348.013C705.502 354.049 710.725 360.376 715.6 366.968C716.274 367.89 719.406 372.169 719.751 372.938C719.494 376.392 720.448 375.7 721.27 378.658L720.585 379.423C717.526 378.322 716.409 373.532 714.819 371.171C714.743 371.058 709.63 367.792 709.158 367.503C704.356 361.994 700.068 356.34 695.045 350.855C691.583 347.076 684.623 340.44 682.069 336.57C685.328 331.772 704.54 310.542 709.06 306.944Z"/><path fill="#96976B" d="M763.446 452.192C772.311 449.63 786.628 445.143 795.306 443.952C798.706 457.603 801.109 475.99 803.063 490.101C796.856 492.066 776.897 495.349 769.884 495.902C768.913 491.05 764.056 468.001 764.804 464.574C766.247 463.781 766.544 463.885 768.173 463.755L769.122 464.15C770.441 468.063 773.107 485.497 773.861 490.212C781.801 488.789 789.64 487.445 797.496 485.585C795.038 474.194 793.562 460.852 790.649 450.087C783.074 451.983 775.531 454.008 768.024 456.163C767.795 455.415 767.761 454.043 767.465 452.98C766.08 452.494 764.891 452.396 763.446 452.192Z"/><path fill="#B8A769" d="M697.883 336.413C705.391 328.43 713.047 320.587 720.846 312.888C726.864 318.197 739.883 332.315 743.523 339.155C739.769 342.778 732.809 348.247 728.421 351.093C724.03 347.027 719.927 341.848 716.305 337.093L720.219 332.84C723.392 336.935 725.517 339.632 729.083 343.394C732.342 341.217 734.119 339.93 737.097 337.4C733.389 332.905 725.658 324.766 721.503 320.826C718.459 322.943 708.233 333.524 705.171 336.582C708.139 340.607 723.592 358.287 727.229 361.887C725.255 362.348 724.233 362.166 722.543 363.304L722.899 363.684C724.774 365.714 725.376 366.23 725.397 368.924C722.55 366.373 716.567 358.317 713.722 354.943C708.486 348.733 703.159 342.588 697.883 336.413Z"/><path fill="#96976B" d="M768.858 350.504C778.931 362.485 797.292 402.563 801.359 417.76C796.007 420.575 760.961 434.037 756.2 434.713C755.085 433.084 755.178 433.064 754.869 431.198C755.421 429.756 755.846 429.532 757.662 428.77C769.304 423.878 783.279 419.962 794.5 414.418C791.621 406.207 772.894 362.097 767.503 358.199C765.745 358.34 764.98 358.935 763.442 359.784L764.139 356.204C763.528 354.533 763.858 355.103 761.836 354.044C764.541 352.497 765.956 351.704 768.858 350.504Z"/><path fill="#EDE6AB" d="M377.058 258.443C379.946 259.93 391.079 282.598 392.506 286.532C390.422 288.146 363.048 304.764 361.711 305.15C356.55 301.478 364.462 297.711 367.348 295.725C369.82 294.025 372.67 292.425 375.249 290.844L386.074 284.531C382.605 278.092 378.744 270.528 374.869 264.442C370.394 266.557 367.722 268.189 363.552 270.783L365.77 275.588C364.082 276.655 362.135 277.729 360.393 278.743C358.009 275.578 356.99 274.058 355.343 270.511C361.837 265.631 369.558 261.527 377.058 258.443Z"/><path fill="#EDE6AB" d="M223.131 415.789C229.072 416.894 273.925 431.81 279.093 434.679C279.417 436.511 278.844 437.702 278.292 439.5C271.231 437.734 226.198 423.301 221.831 420.38C221.697 418.723 222.477 417.373 223.131 415.789Z"/><path fill="#B8A769" d="M736.263 370.214C741.847 365.931 755.419 358.02 761.836 354.044C763.858 355.103 763.528 354.533 764.139 356.204L763.442 359.784C755.507 364.421 747.69 369.258 740 374.291C736.941 376.289 731.54 380.197 728.573 381.842C727.628 383.13 724.079 384.941 722.547 385.722C719.186 382.048 712.412 372.01 709.158 367.503C709.63 367.792 714.743 371.058 714.819 371.171C716.409 373.532 717.526 378.322 720.585 379.423L721.27 378.658C720.448 375.7 719.494 376.392 719.751 372.938C721.038 374.369 722.804 376.746 724.052 378.314C727.701 376.266 732.174 372.65 736.263 370.214Z"/><path fill="#96976B" d="M736.263 370.214C741.847 365.931 755.419 358.02 761.836 354.044C763.858 355.103 763.528 354.533 764.139 356.204L763.442 359.784C755.507 364.421 747.69 369.258 740 374.291C736.941 376.289 731.54 380.197 728.573 381.842C731.366 375.074 758.159 362.28 758.989 358.98C754.528 358.829 742.416 370.602 736.263 370.214Z"/><path fill="#EDE6AB" d="M213.417 503.59C218.083 503.514 262.853 504.571 264.924 505.422C265.927 506.997 265.826 508.98 264.883 510.56C248.32 510.455 231.102 509.267 214.488 508.91C213.326 508.885 212.971 508.065 212.466 507.246C212.477 505.227 212.419 505.319 213.417 503.59Z"/><path fill="#EDE6AB" d="M570.122 228.721C577.706 229.482 594.601 234.703 601.619 237.386L601.302 238.135L600.314 237.919C599.033 239.885 600.204 239.616 600.32 241.508L599.887 241.222C599.661 241.075 599.431 240.934 599.207 240.785C595.97 238.639 578.855 236.066 574.045 234.981C573.059 240.366 572.113 246.346 570.638 251.57C568.877 251.309 567.068 251.088 565.3 250.851C566.996 243.339 567.969 236.26 570.122 228.721Z"/><path fill="#EDE6AB" d="M563.833 255.751C571.695 257.612 579.597 259.726 587.474 261.392C589.953 261.917 591.415 258.511 595.318 262.295C595.561 264.343 594.808 266.279 594.247 268.32C591.153 268.938 568.982 262.013 562.537 261.161L563.833 255.751Z"/><path fill="#B8A769" d="M747.524 347.171C746.991 348.022 746.506 348.803 745.998 349.672C747.645 350.907 747.063 350.123 747.708 352.175C749.908 350.823 749.91 350.333 752.115 350.257C748.169 353.509 736.481 362.076 732.064 364.834C730.786 365.991 727.296 369.227 725.715 369.349L725.397 368.924C725.376 366.23 724.774 365.714 722.899 363.684L722.543 363.304C724.233 362.166 725.255 362.348 727.229 361.887C730.25 358.957 743.333 350.098 747.524 347.171Z"/><path fill="#B3B07F" d="M737.863 356.62C735.3 360.978 732.171 361.662 732.064 364.834C730.786 365.991 727.296 369.227 725.715 369.349L725.397 368.924C725.376 366.23 724.774 365.714 722.899 363.684L722.543 363.304C724.233 362.166 725.255 362.348 727.229 361.887C730.428 361.56 734.505 358.247 737.863 356.62Z"/><path fill="#EDE6AB" d="M326.97 329.879C328.668 330.71 329.767 331.478 330.403 333.165C328.492 336.111 316.598 348.211 313.265 351.677C311.646 351.322 310.91 350.759 310.108 349.364C310.804 346.339 323.964 332.815 326.97 329.879Z"/><path fill="#EDE6AB" d="M311.5 321.923C313.933 323.561 316.499 325.493 318.889 327.23L312.365 334.392L311.493 334.413C309.232 332.83 307.198 330.548 305.245 328.551C307.224 326.232 309.368 324.101 311.5 321.923Z"/><path fill="#96976B" d="M788.214 474.162C790.013 473.906 789.234 473.698 790.717 474.34C791.376 475.873 791.681 476.113 791.327 477.722C789.323 480.524 782.496 481.125 778.722 481.935C777.379 482.117 777.837 482.176 776.614 481.694C775.464 479.621 774.882 479.144 776.176 477.057C779.453 475.053 784.23 474.774 788.214 474.162Z"/><path fill="#EDE6AB" d="M581.287 245.467C584.681 246.309 591.158 246.135 592.888 247.86C593.265 249.666 592.268 251.106 591.435 252.822C590 254.431 581.513 251.795 579.183 251.228C579.825 249.317 580.583 247.363 581.287 245.467Z"/><path fill="#8F8E63" d="M780.821 461.022C781.746 460.995 782.504 461.025 783.428 461.054C786.363 463.872 786.809 466.546 783.028 468.428L780.747 468.385C778.24 466.354 777.453 462.803 780.821 461.022Z"/><defs><linearGradient id="gradient_5" gradientUnits="userSpaceOnUse" x1="888.41223" y1="747.65466" x2="381.79532" y2="538.16425"><stop offset="0" stop-color="#696940"/><stop offset="1" stop-color="#C5BE83"/></linearGradient></defs><path fill="url(#gradient_5)" d="M727.082 420.917L727.386 419.539C728.679 421.736 734.163 436.043 734.887 436.565L735.19 436.425C738.457 442.902 741.364 454.975 743.095 462.072C753.838 504.35 752.799 548.763 740.09 590.492L749.683 590.482L750.877 585.709L751.582 585.934L752.001 587.545L752.74 587.873C753.412 587.401 755.126 586.128 755.79 585.918L756.112 586.675C755.992 588.237 755.597 589.29 756.257 590.343C761.818 591.881 762.621 588.677 765.367 588.86C777.931 589.699 791.276 591.311 803.857 590.212C804.384 590.166 804.585 589.292 804.852 588.679L806.134 587.636C806.058 585.813 806.437 585.708 807.762 584.709L808.587 584.935L807.963 584.642L809.166 586.084L809.133 585.618C810.315 587.997 809.666 588.266 810.062 590.421L818.785 590.465C821.063 590.529 822.887 590.564 825.16 590.441C844.818 590.635 864.924 590.18 884.471 590.57C899.355 609.432 917.158 630.396 931.034 649.585C918.881 663.76 907.185 679.845 894.782 694.037C890.587 698.837 885.919 705.311 881.624 709.739C868.025 710.215 853.072 709.957 839.368 709.955L762.672 709.981C752.352 721.773 743.592 732.234 731.892 742.814C677.195 792.276 607.395 824.429 533.621 829.355C487.035 832.569 440.332 825.082 397.085 807.467C393.27 805.947 377.387 799.249 374.867 797.209C374.76 796.345 374.278 795.949 373.673 795.399C373.335 793.656 373.694 792.84 374.123 791.126C327.249 765.895 306.782 749.513 270.921 709.578L282.588 709.67C289.661 718.806 305.091 733.884 313.713 741.348C314.985 742.725 318.473 745.341 320.083 746.618C326.724 740.268 341.883 721.247 348.267 713.49L351.475 709.584C356.772 709.606 362.677 709.503 367.919 709.819C374.98 716.377 383.931 721.846 392.243 726.722C395.085 728.39 401.437 731.642 403.798 733.45C405.625 734.033 408.025 732.285 409.677 731.394C410.87 731.616 410.434 731.669 411.556 731.246C398.444 723.829 389.06 719.166 376.496 710.182C373.532 708.281 375.935 705.582 370.569 705.164C362.319 704.52 276.738 706.216 273.637 704.211L878.823 704.02C880.272 702.142 881.391 700.602 883.081 698.915C885.684 695.313 889.819 690.606 892.728 687.084C895.084 684.261 897.078 681.601 899.271 678.645C891.198 668.677 881.699 658.725 873.338 648.711C881.748 638.376 889.774 628.547 898.784 618.696C893.919 611.855 887.213 603.492 881.635 597.095C880.554 595.856 879.723 596.094 878.299 596.08C837.112 595.524 793.008 595.526 751.848 596.015C736.59 595.538 719.406 595.963 703.967 595.962L608.615 595.984L368.128 595.933C329.976 595.908 291.297 596.295 253.195 595.89C256.535 594.861 284.339 594.734 289.541 594.729L346.501 594.8C352.334 594.757 358.085 594.11 363.897 594.406C366.194 594.523 371.246 592.929 374.141 592.576L374.787 592.502C372.412 589.697 298.237 592.137 288.884 591.15C286.927 590.943 286.785 586.851 286.827 585.439L288.896 590.475L734.384 590.533C750.924 531.776 748.169 480.095 724.222 423.639L724.79 422.982C726.427 423.262 726.188 423.724 727.95 423.272C728.122 421.721 728.215 422.51 727.082 420.917Z"/><path fill="#0C3432" d="M348.267 713.49L351.475 709.584C356.772 709.606 362.677 709.503 367.919 709.819C374.98 716.377 383.931 721.846 392.243 726.722C395.085 728.39 401.437 731.642 403.798 733.45C402.146 735.849 393.17 756.218 391.758 759.945C390.407 762.635 384.907 774.119 384.216 776.684L382.035 780.01C380.324 779.928 378.446 778.836 376.875 778.088C376.958 778.912 378.993 781.883 379.537 782.599C377.601 782.323 376.315 781.886 374.433 781.322C377.57 783.457 381.519 784.969 385.034 786.364C387.618 781.942 390.326 775.555 392.534 770.783C397.965 759.043 402.887 747.038 408.197 735.229L413.435 737.23L414.179 736.887C414.912 738.921 414.594 741.18 414.138 743.233C415.821 743.042 415.137 742.809 416.326 743.725C417.882 740.76 416.778 740.424 418.723 739.49C422.568 739.812 426.965 742.807 430.927 743.892C431.035 744.574 431.111 744.315 430.929 744.701C440.224 749.174 461.645 753.91 471.863 755.996C467.664 772.813 466.462 789.993 462.852 805.688C445.713 802.901 429.68 799.594 413.569 792.753C417.217 781.317 421.223 767.574 425.253 756.475L433.906 759.075L434.223 758.362C438.841 759.989 450.756 762.82 454.922 761.403L454.894 760.807C454.376 760.521 444.147 757.765 442.963 757.633C439.303 757.225 423.084 749.062 422.286 752.63C421.006 758.362 408.002 791.535 408.564 795.17C410.278 797.674 413.643 796.805 414.03 798.518L413.935 798.729C424.086 803.86 455.768 810.283 467.162 811.376C468.551 806.887 469.931 796.794 470.708 791.918C472.601 780.294 474.381 768.652 476.049 756.993L482.737 757.544C480.67 772.275 478.181 798.312 477.522 813.257C496.101 816.4 529.365 816.349 547.919 813.108C547.564 801.353 543.991 776.958 543.05 764.242C542.798 763.998 542.547 763.753 542.296 763.509C540.524 763.553 540.265 763.42 538.675 764.238C537.269 767.233 541.7 802.394 542.103 808.826C526.021 811.657 499.606 810.32 483.2 809.235C483.79 793.082 485.982 774.856 487.122 758.333C497.717 759.057 508.586 759.854 519.196 759.41C529.157 758.993 539.349 757.594 549.256 756.338C549.863 765.033 556.489 804.45 559.047 811.482C569.163 810.065 616.916 798.309 622.67 792.727C623.458 789.514 619.709 781.454 618.334 778.127L617.884 778.929C616.942 778.096 617.351 776.517 616.275 774.592C615.169 775.733 615.787 775.496 614.479 775.849L613.938 775.322L614.84 774.709L614.88 773.793L613.9 773.21L614.315 772.333L615.386 772.768C615.412 771.571 613.672 767.409 612.794 766.721C611.449 766.987 611.938 766.615 611.191 767.708C611.641 769.202 611.265 768.527 612.555 769.676L613.464 769.037L613.898 770.053L613.264 770.64L611.244 770.462C610.9 772.209 612.699 773.771 612.263 776.616C613.06 779.693 615.819 786.651 617.007 789.965C606.394 795.432 574.92 803.339 562.888 805.47C559.388 790.594 556.376 770.908 554.063 755.795C566.103 752.167 598.285 745.03 607.787 738.302L607.412 738.043C608.005 737.785 608.821 737.306 609.447 737.208C610.756 737.003 616.667 743.916 618.372 745.203C618.305 742.394 614.456 738.69 614.673 735.121C621.598 730.595 632.719 725.41 640.764 720.408L641.086 721.129C646.862 717.789 652.311 713.92 657.695 709.986L665.601 709.978C668.16 713.968 670.443 717.588 673.321 721.375C674.59 720.284 674.334 720.935 674.503 719.551C673.136 718.062 673.022 717.657 672.11 715.802C673.514 716.069 674.987 716.547 676.368 716.951C674.966 714.926 672.82 712.02 671.692 709.934L679.349 709.876C682.897 714.344 692.389 726.549 696.486 730.147L696.54 730.36C699.731 734.484 704.185 739.986 708.405 742.988C720.914 733.756 732.636 721.533 742.978 709.99L754.808 710.001C705.704 770.747 623.566 814.407 545.975 822.535C484.201 829.006 429.67 818.221 374.123 791.126C327.249 765.895 306.782 749.513 270.921 709.578L282.588 709.67C289.661 718.806 305.091 733.884 313.713 741.348C314.985 742.725 318.473 745.341 320.083 746.618C326.724 740.268 341.883 721.247 348.267 713.49Z"/><path fill="#D6C585" d="M328.917 752.926C335.845 743.251 349.672 721.809 357.459 713.287C363.633 717.438 369.515 722.035 375.771 726.104C381.903 730.092 388.203 733.671 394.357 737.628C392.311 742.026 380.122 767.732 377.764 768.969L376.178 768.181C372.005 766.247 365.932 762.367 361.882 759.882C356.7 756.711 351.708 753.241 346.931 749.489C349.794 744.319 356.096 735.896 359.616 730.934C365.481 734.152 372.574 739.024 378.034 742.962C376.846 745.633 374.15 750.178 372.647 752.883C369.556 751.42 365.392 749.823 364.413 746.328C365.167 744.911 364.807 745.539 366.564 744.544C368.211 745.256 370.026 746.272 371.617 745.371C371.535 744.982 371.453 744.593 371.371 744.203C368.226 742.322 363.89 739.434 361.055 737.455C358.483 740.858 356.068 744.665 353.708 748.24C356.76 750.663 361.443 753.593 364.779 755.817C367.444 757.445 372.758 760.47 374.87 762.425C376.211 762.139 376.314 761.993 377.24 760.339C380.989 753.644 384.512 746.58 387.978 739.746C377.894 733.391 368.152 727.397 358.619 720.21C351.68 729.31 341.782 742.207 335.807 751.843C348.47 760.881 361.18 769.227 375.168 776.095C376.949 776.97 380.686 778.719 382.035 780.01C380.324 779.928 378.446 778.836 376.875 778.088C376.958 778.912 378.993 781.883 379.537 782.599C377.601 782.323 376.315 781.886 374.433 781.322C372.764 780.875 368.566 778.486 366.858 777.597C353.034 770.398 341.298 762.318 328.917 752.926Z"/><path fill="#B3B07F" d="M422.697 749.573C436.912 755.65 448.186 758.157 463.113 761.641C461.924 769.678 457.888 790.102 455.746 797.283C445.455 794.843 432.599 791.87 422.883 787.994C424.702 780.632 427.228 772.955 429.489 765.67C435.864 767.697 442.267 769.632 448.696 771.477C447.943 775.844 447.371 778.805 446.195 783.054C443.618 782.705 438.281 782.647 437.889 779.738C438.915 777.768 440.628 777.435 442.695 775.85L442.502 775.036C440.012 773.631 435.987 772.637 433.13 771.803C431.53 776.311 430.361 780.359 429.054 784.939C437.066 787.406 444.179 789.533 452.514 790.808C454.086 782.349 455.779 773.914 457.594 765.504C449.876 763.044 442.039 761.984 433.906 759.075L434.223 758.362C438.841 759.989 450.756 762.82 454.922 761.403L454.894 760.807C454.376 760.521 444.147 757.765 442.963 757.633C439.303 757.225 423.084 749.062 422.286 752.63C421.006 758.362 408.002 791.535 408.564 795.17C410.278 797.674 413.643 796.805 414.03 798.518L413.935 798.729C410.965 797.936 409.801 797.263 407.126 795.89C409.662 786.225 413.622 776.372 416.536 766.758C418.245 761.123 420.396 754.965 422.697 749.573Z"/><path fill="#8F8E63" d="M661.863 716.877C669.13 726.571 678.899 742.676 685.816 753.257C684.586 760.64 681.048 759.62 678.568 764.677L678.223 764.872C676.7 764.401 674.813 764.854 673.086 765.055C673.141 763.732 674.676 762.043 675.597 760.666C676.211 760.116 680.246 757.522 681.172 756.903C679.451 753.517 674.869 746.684 672.602 743.056L667.046 734.242C664.882 730.915 662.635 727.315 660.392 724.068C651.665 730.413 640.128 736.533 630.444 741.515C633.299 748.469 638.402 758.813 642.174 765.398C643.821 766.116 643.728 765.824 644.708 767.1C644.264 769.571 642.654 771.188 640.052 770.903L638.188 769.637C637.576 767.811 633.86 760.597 632.91 758.744C629.622 752.335 626.547 746.252 623.6 739.646C635.386 734.137 651.158 724.243 661.863 716.877Z"/><path fill="#96976B" d="M667.046 734.242C673.12 735.515 669.369 736.277 672.389 739.207L674.142 739.556C673.529 739.963 673.089 740.218 672.455 740.583C672.326 741.833 672.356 741.811 672.602 743.056L667.046 734.242Z"/><path fill="#96976B" d="M561.534 761.584C563.733 760.91 566.156 760.282 568.389 759.716C581.633 756.356 594.364 752.011 607.218 747.37C607.998 749.19 608.767 751.623 609.432 753.534C607.179 754.327 605.966 753.525 603.49 753.932C591.041 758.549 578.528 761.298 567.239 765.38C568.292 770.062 571.885 787.629 573.225 791.189C577.427 792.145 588.579 787.609 592.377 788.731C586.914 792.913 574.832 794.3 571.433 796.608C571.041 796.806 570.632 796.742 570.119 796.76C567.625 793.85 562.65 767.037 561.534 761.584Z"/><defs><linearGradient id="gradient_6" gradientUnits="userSpaceOnUse" x1="659.33978" y1="781.88837" x2="629.54999" y2="754.40131"><stop offset="0" stop-color="#808156"/><stop offset="1" stop-color="#98986C"/></linearGradient></defs><path fill="url(#gradient_6)" d="M622.507 765.512L623.562 764.051L622.729 761.676C623.785 760.64 624.276 760.874 626.037 760.533C628.863 767.007 632.358 776.188 635.31 782.173C649.923 777.326 663.066 766.916 675.597 760.666C674.676 762.043 673.141 763.732 673.086 765.055C674.813 764.854 676.7 764.401 678.223 764.872C668.09 772.454 644.791 784.286 632.951 788.979C629.528 783.124 625.284 772.121 622.507 765.512Z"/><path fill="#D6C585" d="M413.435 737.23L414.179 736.887C414.912 738.921 414.594 741.18 414.138 743.233C415.821 743.042 415.137 742.809 416.326 743.725C417.882 740.76 416.778 740.424 418.723 739.49C422.568 739.812 426.965 742.807 430.927 743.892C431.035 744.574 431.111 744.315 430.929 744.701C427.272 743.663 422.338 741.403 418.728 739.877C413.76 752.186 409.823 765.146 404.464 777.38C403.256 779.473 400.755 790.881 398.088 791.42C392.674 792.516 394.86 788.264 395.431 786.685C401.303 770.448 408.299 754.81 413.803 738.469C413.68 738.056 413.558 737.643 413.435 737.23Z"/><path fill="#96976B" d="M575.977 770.002C583.773 767.845 591.553 765.633 599.318 763.365C600.831 766.895 602.207 771.301 603.463 774.989C602.806 775.277 602.212 775.35 601.494 775.508C597.389 774.144 599.013 772.057 596.291 769.317C591.557 770.953 586.74 771.978 582.064 773.7L583.475 778.537C583.775 780.01 584.047 780.598 583.504 781.997L582.717 782.385C580.065 781.272 580.081 780.147 578.058 779.063L575.977 770.002Z"/><path fill="#8F8E63" d="M657.575 734.808C660.748 738.598 668.477 750.355 670.544 754.677C668.802 756.128 667.575 757.363 665.483 758.225L663.724 757.938C659.813 761.143 662.145 759.045 657.763 758.287C659.559 757.226 660.991 756.652 662.093 754.806L663.167 753.358C663.143 749.894 658.751 744.579 656.791 741.015C655.413 739.079 649.068 745.166 645.209 744.662C646.331 742.271 647.738 742.16 650.095 741.722C651.203 740.369 650.846 740.756 650.874 738.543C653.147 737.213 655.209 735.984 657.575 734.808Z"/><path fill="#8F8E63" d="M596.291 769.317C599.013 772.057 597.389 774.144 601.494 775.508C602.212 775.35 602.806 775.277 603.463 774.989C604.52 778.213 606.19 782.856 606.838 786.042C600.838 789.074 578.044 795.652 571.433 796.608C574.832 794.3 586.914 792.913 592.377 788.731C588.579 787.609 577.427 792.145 573.225 791.189C580.963 788.068 590.549 787.639 600.553 783.045C599.506 779.393 596.724 772.527 596.291 769.317Z"/><path fill="#96976B" d="M607.787 738.302L607.412 738.043C608.005 737.785 608.821 737.306 609.447 737.208C610.756 737.003 616.667 743.916 618.372 745.203C618.305 742.394 614.456 738.69 614.673 735.121C621.598 730.595 632.719 725.41 640.764 720.408L641.086 721.129C631.604 727.39 623.676 730.436 615.131 735.644C618.97 743.929 622.713 752.024 626.037 760.533C624.276 760.874 623.785 760.64 622.729 761.676L623.562 764.051L622.507 765.512C618.743 757.784 614.983 745.996 610.418 738.457C610.108 737.945 608.65 738.25 607.787 738.302Z"/><path fill="#8F8E63" d="M673.321 721.375C674.59 720.284 674.334 720.935 674.503 719.551C673.136 718.062 673.022 717.657 672.11 715.802C673.514 716.069 674.987 716.547 676.368 716.951C678.687 719.901 691.838 737 692.7 739.426C692.845 741.278 693.346 741.131 692.911 743.188L692.32 743.48C690.241 741.059 688.38 738.524 686.506 735.946C685.436 734.473 684.797 734.818 682.685 734.528C680.329 730.802 675.998 725.105 673.321 721.375Z"/><path fill="#96976B" d="M639.291 745.098C643.17 742.946 647.031 740.761 650.874 738.543C650.846 740.756 651.203 740.369 650.095 741.722C647.738 742.16 646.331 742.271 645.209 744.662C649.068 745.166 655.413 739.079 656.791 741.015C653.885 743.55 647.955 745.132 646.171 748.377C647.399 751.124 651.671 749.738 652.257 753.747C650.664 755.648 648.246 756.815 646.058 758.107C643.67 753.839 641.499 749.461 639.291 745.098Z"/><path fill="#7B7C52" d="M642.174 765.398C649.031 762.254 656.102 757.372 662.093 754.806C660.991 756.652 659.559 757.226 657.763 758.287C662.145 759.045 659.813 761.143 663.724 757.938L665.483 758.225C661.842 760.779 644.217 771.248 640.408 772.081C638.88 771.305 639.257 771.334 638.188 769.637L640.052 770.903C642.654 771.188 644.264 769.571 644.708 767.1C643.728 765.824 643.821 766.116 642.174 765.398Z"/><path fill="#8F8E63" d="M609.432 753.534L609.901 755.645C610.289 755.981 610.498 756.478 610.468 756.99C613.195 763.68 615.875 771.279 618.334 778.127L617.884 778.929C616.942 778.096 617.351 776.517 616.275 774.592C615.169 775.733 615.787 775.496 614.479 775.849L613.938 775.322L614.84 774.709L614.88 773.793L613.9 773.21L614.315 772.333L615.386 772.768C615.412 771.571 613.672 767.409 612.794 766.721C611.449 766.987 611.938 766.615 611.191 767.708C611.641 769.202 611.265 768.527 612.555 769.676L613.464 769.037L613.898 770.053L613.264 770.64L611.244 770.462C610.9 772.209 612.699 773.771 612.263 776.616C609.179 769.121 606.831 761.594 603.49 753.932C605.966 753.525 607.179 754.327 609.432 753.534Z"/><path fill="#96976B" d="M610.468 756.99C610.423 757.757 609.855 758.391 609.099 758.521C608.342 758.651 607.596 758.242 607.297 757.535C606.999 756.827 607.228 756.008 607.849 755.557C608.47 755.106 609.32 755.142 609.901 755.645C610.289 755.981 610.498 756.478 610.468 756.99Z"/><path fill="#96976B" d="M682.685 734.528C684.797 734.818 685.436 734.473 686.506 735.946C688.38 738.524 690.241 741.059 692.32 743.48L692.911 743.188C693.346 741.131 692.845 741.278 692.7 739.426C694.754 741.407 704.896 751.99 696.555 752.247C693.068 749.698 685.657 738.678 682.685 734.528Z"/><path fill="#96976B" d="M583.475 778.537L584.091 778.32C585.751 777.75 586.42 777.33 588.107 777.758L588.957 778.547C588.792 782.458 580.307 788.47 578.058 779.063C580.081 780.147 580.065 781.272 582.717 782.385L583.504 781.997C584.047 780.598 583.775 780.01 583.475 778.537Z"/><path fill="#7B7C52" d="M678.568 764.677C681.048 759.62 684.586 760.64 685.816 753.257C686.787 754.714 687.598 755.556 687.644 757.277C686.474 760.964 682.128 762.525 678.568 764.677Z"/><path fill="#96976B" d="M493.4 766.295C506.294 766.51 517.955 766.616 530.864 766.448C531.016 767.52 531.137 768.597 531.225 769.676C531.873 778.234 532.9 792.88 532.704 801.907C532.433 802.221 532.161 802.535 531.89 802.849C518.767 803.982 505.111 803.746 491.965 803.026C491.91 792.293 492.366 776.71 493.4 766.295Z"/><path fill="#0C3432" d="M498.098 771.586C507.635 772.237 516.868 772.045 526.417 771.892C526.57 776.282 528.086 794.346 527.327 797.465L526.498 797.951C516.36 798.434 507.195 798.856 497.051 797.811C497.029 790.018 497.539 779.291 498.098 771.586Z"/><path fill="#B8A769" d="M504.903 780.033L518.449 779.899C518.631 783.95 518.868 787.984 518.749 792.037C514.145 792.508 509.29 792.41 504.676 792.164C504.624 788.294 504.818 783.938 504.903 780.033Z"/><path fill="#0F231A" d="M509.631 784.4C511.232 784.379 511.6 784.285 513.161 784.712C513.898 786.155 513.612 785.863 513.252 787.872C512.24 787.969 511.311 788.037 510.298 788.108C509.276 786.921 509.664 786.447 509.631 784.4Z"/><path fill="#0C3432" d="M393.787 710.052C446.455 742.922 499.403 753.724 560.513 739.566C578.269 735.419 595.504 729.294 611.895 721.305C618.783 717.942 625.889 713.255 632.527 710.355C634.841 709.344 645.584 709.691 648.948 709.735C645.295 712.99 635.891 718.515 631.405 721.112C594.059 742.729 546.593 755.982 503.408 754.063C470.298 752.593 441.589 744.86 411.556 731.246C398.444 723.829 389.06 719.166 376.496 710.182C380.878 709.718 389.202 709.912 393.787 710.052Z"/><path fill="#0C3432" d="M727.162 709.711C730.058 709.776 732.952 709.815 735.842 710.015C729.03 718.095 716.947 729.661 708.344 736.113C706.034 733.639 704.384 731.698 702.271 729.05C700.777 727.363 699.527 725.932 697.892 724.361C694.191 719.721 689.647 714.731 686.448 709.896L694.695 709.839C699.189 715.259 703.898 721.24 708.879 726.136C715.062 721.073 721.494 714.056 727.162 709.711Z"/><path fill="#96976B" d="M696.486 730.147C696.255 728.919 695.257 726.471 694.767 725.271L695.748 724.545C696.744 724.601 696.945 724.564 697.892 724.361C699.527 725.932 700.777 727.363 702.271 729.05C701.219 730.754 701.297 731.387 699.875 731.78C698.375 730.968 698.189 730.697 696.54 730.36L696.486 730.147Z"/><path fill="#D6C585" d="M391.758 759.945C392.885 762.551 389.11 765.002 389.312 767.67C390.67 768.082 390.106 767.889 391.887 767.345C391.572 769.318 390.27 770.233 388.618 771.131L387.815 771.573C387.617 771.678 387.42 771.782 387.222 771.887C386.635 773.226 385.339 776.344 384.376 777.353L384.216 776.684C384.907 774.119 390.407 762.635 391.758 759.945Z"/><path fill="#7B7C52" d="M892.728 687.084C893.077 691.948 887.332 697.488 883.081 698.915C885.684 695.313 889.819 690.606 892.728 687.084Z"/><path fill="#0C3432" d="M620.153 709.753L620.722 709.796C618.975 713.432 591.027 724.476 586.206 726.303C533.729 746.219 475.463 744.298 424.412 720.968C416.828 717.433 411.039 714.479 403.954 710.061C475.616 709.457 548.703 711.1 620.153 709.753Z"/><path fill="#0C3432" d="M902.118 623.359C904.098 624.347 918.661 642.993 920.922 645.931C915.305 646.201 908.317 646.027 902.597 646.016C896.249 646.153 889.222 646.481 882.936 646.052C889.366 638.545 895.644 630.755 902.118 623.359Z"/><path fill="#0C3432" d="M883.924 651.675C896.319 651.93 908.725 651.657 921.001 651.948C918.974 655.034 914.004 661.029 911.592 664.147C908.758 667.729 906.42 670.626 903.332 674.002C896.972 667.175 889.673 658.96 883.924 651.675Z"/><path fill="#0C3432" d="M707.81 709.538C710.173 708.85 717.538 707.897 719.45 709.567L719.371 710.514L718.075 711.236C715.315 712.605 711.641 716.504 709.22 718.78C706.428 716.226 704.225 713.177 702.035 710.12C703.923 709.883 705.908 709.723 707.81 709.538Z"/><path fill="#7B7C52" d="M707.81 709.538C710.173 708.85 717.538 707.897 719.45 709.567L719.371 710.514L718.075 711.236C718.283 710.422 718.277 710.856 717.998 709.937C714.314 709.494 715.659 711.32 713.746 712.811C711.397 712.222 710.782 710.397 707.81 709.538Z"/><path fill="#0F231A" d="M751.848 596.015C793.008 595.526 837.112 595.524 878.299 596.08C870.85 598.316 826.704 596.472 816.044 596.53C801.857 596.607 785.852 597.443 771.583 597.006C766.618 596.854 756.618 597.085 751.848 596.015Z"/><path fill="#EBEEED" d="M269.631 622.663C276.629 621.725 285.262 623.068 291.39 626.691C297.297 630.11 301.531 635.815 303.092 642.46C307.348 660.712 296.523 675.208 278.475 678.887C269.372 679.982 260.842 678.722 253.384 673.016C247.887 668.857 244.27 662.683 243.329 655.855C240.781 637.896 252.131 625.227 269.631 622.663Z"/><path fill="#0C3432" d="M269.421 627.588C290.439 626.641 297.815 649.146 290.286 665.802C288.138 670.555 283.573 672.745 278.814 674.129C251.433 677.881 244.73 633.03 269.421 627.588Z"/><path fill="#EBEEED" d="M368.368 623.308C383.616 623.126 405.049 620.512 416.239 631.401C421.5 636.568 424.447 643.644 424.407 651.018C424.442 674.113 401.967 679.561 383.558 678.274C377.487 677.85 370.38 678.009 364.258 678.124C366.27 677.11 368.007 676.497 369.383 674.771C370.633 670.143 370.969 626.798 368.849 624.934L368.368 623.308Z"/><path fill="#0C3432" d="M380.703 627.241C389.343 626.96 397.152 627.576 404.116 633.5C409.459 638.129 412.734 644.7 413.214 651.753C413.718 658.601 411.945 663.826 407.499 668.938C402.948 673.174 396.164 674.269 390.142 674.159C387.415 674.109 384.047 673.721 382.1 671.58C379.411 668.624 380.54 633.563 380.703 627.241Z"/><path fill="#EBEEED" d="M505.1 623.753C509.409 622.996 514.351 623.414 519.017 623.21C531.082 622.682 550.145 622.96 546.309 640.63C545.071 646.334 541.272 649.289 536.341 652.141C546.245 664.499 547.296 670.298 561.854 677.846C553.649 678.368 548.179 679.656 541.279 675.025C534.769 668.866 531.241 656.253 524.824 654.264C521.073 655.081 521.938 661.258 521.925 664.53C521.896 671.876 520.861 675.289 528.371 678.246C521.686 678.204 514.669 678.452 508.028 678.051C508.498 677.723 511.37 675.745 511.427 674.927C512.475 659.963 512.32 642.172 511.628 627.193C511.552 625.565 506.844 624.469 505.1 623.753Z"/><path fill="#0C3432" d="M522.156 627.606C525.198 627.713 527.872 627.687 530.599 629.174C538.19 633.312 539.106 641.052 534.916 648.051C530.753 651.529 527.406 650.733 522.064 650.43C521.979 642.822 522.01 635.213 522.156 627.606Z"/><path fill="#EBEEED" d="M198.809 614.678C208.271 613.394 218.503 615.27 227.276 618.887C226.17 623.853 225.458 628.107 224.68 633.099C218.541 620.754 210.91 617.257 197.243 619.932C172.883 624.699 176.266 661.533 194.993 671.126C202.435 674.939 209.711 674.928 217.498 672.526C217.536 667.793 217.857 655.131 217.216 650.975C214.378 650.427 211.546 649.844 208.722 649.225C215.329 648.167 229.198 648.459 236.099 648.825C233.745 649.948 232.72 649.69 230.103 651.261C227.528 655.022 228.748 668.605 228.924 673.582C223.138 676.527 220.121 677.441 213.507 678.783C181.219 685.331 155.834 655.874 174.75 626.681C179.548 619.275 189.915 615.843 198.809 614.678Z"/><path fill="#EBEEED" d="M468.673 614.709C476.183 614.022 486.633 615.837 493.647 618.573C493.466 623.582 492.799 629.273 492.323 634.313C489.703 629.231 487.737 624.778 482.37 621.871C476.62 618.758 467.661 618.659 461.449 620.398C456.636 621.73 451.619 625.375 449.419 629.974C438.773 652.234 457.231 680.923 483.185 672.705C488.6 669.736 490.821 664.133 493.688 658.741C493.465 664.763 492.74 670.927 490.98 676.699C476.925 681.067 458.192 681.032 446.462 671.043C433.342 659.871 431.035 638.821 442.475 625.618C449.395 617.633 458.651 615.488 468.673 614.709Z"/><path fill="#EBEEED" d="M566.427 623.215C568.861 623.172 581.882 622.592 583.089 623.602L581.442 624.514C579.363 627.347 578.778 633.777 578.976 637.445C579.599 648.994 574.947 672.649 591.992 673.936C607.688 675.12 608.688 660.883 608.041 649.267C607.654 642.312 608.691 634.722 607.842 627.772C607.577 625.477 605.367 624.429 603.613 623.37C608.57 623.112 614.148 623.229 619.154 623.226L619.256 623.632C618.504 624.105 616.39 625.402 616.232 626.06C613.091 639.154 618.845 660.043 610.643 671.498C606.767 676.241 600.52 678.753 594.698 679.135C559.089 681.473 571.092 650.868 568.552 628.28C568.095 624.221 566.978 625.649 564.449 623.599L566.427 623.215Z"/><path fill="#EBEEED" d="M786.839 621.768C790.503 624.19 804.376 664.557 808.201 670.523C812.238 676.819 810.789 675.737 818.096 678.076C813.193 678.387 803.874 678.496 799.064 678.076C798.239 674.511 793.799 661.933 791.802 659.29L790.125 659.068L778.467 659.024C777.314 662.192 772.531 673.641 773.988 676.129C775.234 676.619 775.909 676.684 776.604 677.776C774.948 678.42 762.771 678.186 759.999 678.181C761.841 677.216 763.62 676.186 765.426 675.157C767.926 670.653 770.109 664.495 772.037 659.655C776.95 647.324 781.263 633.731 786.839 621.768Z"/><path fill="#0C3432" d="M785.095 638.864C787.083 644.292 788.985 649.926 790.902 655.394L785.066 655.517L779.506 655.457C781.387 649.973 783.016 644.256 785.095 638.864Z"/><path fill="#EBEEED" d="M715.799 624.201C725.634 623.371 740.931 624.181 751.615 623.875C751.39 627.733 750.561 632.515 749.993 636.413L749.269 633.848C747.094 626.086 739.16 628.401 732.313 628.484C732.11 634.785 732.213 641.165 732.248 647.474C734.871 647.523 737.655 647.453 740.247 647.506C743.028 647.562 748.072 645.799 750.265 646.77C750.655 648.594 749.428 656.75 749.194 659.325C745.685 649.561 742.108 651.797 732.381 651.544L732.296 658.625C732.274 661.654 731.959 668.216 733.018 670.697C735.053 675.469 744.815 674.304 748.429 672.373C751.84 670.551 752.094 668.967 753.155 665.6C753.415 669.979 754.262 674.159 751.654 677.674C748.343 678.982 723.326 678.19 717.388 678.143C719.138 676.981 719.347 676.827 720.763 675.301C721.885 671.348 722.029 630.788 720.783 626.96C719.44 625.363 717.794 624.983 715.799 624.201Z"/><path fill="#EBEEED" d="M688.036 623.211C693.47 623.077 695.63 623.422 700.86 624.868L699.674 637.833C698.681 634.808 698.153 632.657 695.766 630.412C691.613 626.507 682.64 626.277 678.961 631.075C677.956 632.373 677.516 634.021 677.742 635.646C679.028 644.307 702.945 650.732 702.645 661.711C702.294 674.527 691.446 679.176 680.146 679.695C674.535 679.455 673.66 679.561 668.675 676.856C668.822 671.962 669.339 666.54 669.706 661.617L671.913 670.379C672.45 670.913 673.004 671.429 673.573 671.929C684.484 681.31 705.965 669.412 685.082 657.595C675.171 651.988 662.946 641.465 672.038 629.64C675.757 624.803 682.41 623.709 688.036 623.211Z"/><path fill="#EBEEED" d="M316.524 623.719C319.372 623.351 334.479 622.968 336.671 623.766C334.432 624.64 332.149 625.594 331.992 628.443C331.781 632.289 331.895 636.217 331.864 640.08C331.744 650.825 331.799 661.571 332.028 672.314C335.722 673.167 340.813 673.626 344.598 673.458C350.43 673.199 351.487 671.686 355.006 667.642L355.366 667.939L355.498 670.887C355.142 673.39 354.673 675.814 354.209 678.296C341.793 678.631 329.618 677.632 316.929 678.081C318.274 677.126 319.61 676.087 320.927 675.088C321.887 661.917 321.281 648.452 321.56 635.239C321.622 632.276 321.592 629.362 321.225 626.416C320.252 625.065 318.151 624.417 316.524 623.719Z"/><path fill="#EBEEED" d="M632.156 623.736C635.87 623.154 647.845 622.771 651.271 623.972C650.435 624.491 649.654 624.907 649.182 625.82C647.324 629.414 647.443 669.713 648.995 673.525C649.948 675.864 651.375 676.614 653.6 677.556L654.18 677.795L653.375 678.222L631.966 678.422C634.312 677.287 635.797 676.891 637.257 674.816C638.357 670.106 638.439 631.318 637.396 626.695C635.95 624.656 634.561 624.497 632.156 623.736Z"/><path fill="#EBEEED" d="M821.581 623.715C826.332 623.789 836.62 623.165 840.452 623.825L840.758 624.331C839.156 625.645 837.747 627.066 837.683 629.331C837.402 640.754 837.45 652.216 837.411 663.645C837.389 669.97 836.325 674.559 842.98 677.506L843.575 677.762L842.876 678.239C835.744 678.431 828.607 678.401 821.477 678.148C827.878 675.466 827.379 673.85 827.439 666.76C827.548 653.996 827.791 641.095 827.237 628.359C827.109 625.42 823.829 625.431 821.581 623.715Z"/><path fill="#DEE1E3" d="M368.849 624.934C367.277 624.766 366.274 624.804 364.919 623.988C366.033 623.125 366.641 623.41 368.368 623.308L368.849 624.934Z"/></svg>